<svg width="106" height="17" viewBox="0 0 106 17" fill="none" xmlns="http://www.w3.org/2000/svg">
<path d="M11.6815 7.02382C11.6815 8.3304 11.4367 9.44947 10.9472 10.381C10.4617 11.3087 9.79857 12.0192 8.95778 12.5126C8.12094 13.006 7.17161 13.2527 6.10977 13.2527C5.04793 13.2527 4.09662 13.006 3.25584 12.5126C2.419 12.0152 1.75584 11.3027 1.26637 10.3751C0.780848 9.44355 0.538086 8.32645 0.538086 7.02382C0.538086 5.71725 0.780848 4.60015 1.26637 3.67252C1.75584 2.74095 2.419 2.02845 3.25584 1.53503C4.09662 1.04161 5.04793 0.794904 6.10977 0.794904C7.17161 0.794904 8.12094 1.04161 8.95778 1.53503C9.79857 2.02845 10.4617 2.74095 10.9472 3.67252C11.4367 4.60015 11.6815 5.71725 11.6815 7.02382ZM9.47291 7.02382C9.47291 6.10409 9.32883 5.32844 9.04068 4.69686C8.75647 4.06134 8.36173 3.58173 7.85647 3.25805C7.35121 2.93042 6.76898 2.76661 6.10977 2.76661C5.45056 2.76661 4.86833 2.93042 4.36307 3.25805C3.85781 3.58173 3.4611 4.06134 3.17294 4.69686C2.88873 5.32844 2.74663 6.10409 2.74663 7.02382C2.74663 7.94355 2.88873 8.72118 3.17294 9.35671C3.4611 9.98828 3.85781 10.4679 4.36307 10.7955C4.86833 11.1192 5.45056 11.281 6.10977 11.281C6.76898 11.281 7.35121 11.1192 7.85647 10.7955C8.36173 10.4679 8.75647 9.98828 9.04068 9.35671C9.32883 8.72118 9.47291 7.94355 9.47291 7.02382Z" fill="#006C35"/>
<path d="M13.1633 13.087V3.99226H15.2416V5.50804H15.3363C15.5021 4.98304 15.7863 4.57844 16.1889 4.29423C16.5955 4.00607 17.0593 3.862 17.5804 3.862C17.6988 3.862 17.831 3.86792 17.9771 3.87976C18.1271 3.88765 18.2514 3.90147 18.3501 3.92121V5.89291C18.2593 5.86133 18.1153 5.8337 17.9179 5.81001C17.7245 5.78238 17.537 5.76857 17.3554 5.76857C16.9646 5.76857 16.6133 5.85343 16.3014 6.02317C15.9936 6.18896 15.7508 6.41988 15.5732 6.71593C15.3955 7.01198 15.3067 7.35343 15.3067 7.74027V13.087H13.1633Z" fill="#006C35"/>
<path d="M22.8547 16.6869C22.0849 16.6869 21.4237 16.5823 20.8711 16.3731C20.3185 16.1679 19.8744 15.8915 19.5389 15.5442C19.2034 15.1968 18.9705 14.8119 18.8402 14.3896L20.7705 13.9218C20.8573 14.0994 20.9836 14.2751 21.1494 14.4488C21.3152 14.6264 21.5382 14.7725 21.8185 14.8869C22.1027 15.0054 22.4599 15.0646 22.8902 15.0646C23.4981 15.0646 24.0014 14.9165 24.4 14.6205C24.7987 14.3284 24.9981 13.8468 24.9981 13.1758V11.4527H24.8915C24.781 11.6738 24.6191 11.9008 24.406 12.1337C24.1968 12.3666 23.9185 12.562 23.5711 12.7198C23.2277 12.8777 22.7954 12.9567 22.2744 12.9567C21.5757 12.9567 20.9422 12.7929 20.3737 12.4652C19.8093 12.1337 19.3593 11.6402 19.0238 10.985C18.6922 10.3258 18.5264 9.50078 18.5264 8.51C18.5264 7.51132 18.6922 6.66856 19.0238 5.98172C19.3593 5.29094 19.8113 4.76791 20.3797 4.41265C20.9481 4.05344 21.5816 3.87384 22.2803 3.87384C22.8132 3.87384 23.2514 3.96463 23.5948 4.1462C23.9422 4.32383 24.2185 4.53897 24.4237 4.7916C24.629 5.04028 24.7849 5.27515 24.8915 5.4962H25.0099V3.99226H27.1237V13.235C27.1237 14.0126 26.9382 14.656 26.5671 15.1652C26.1961 15.6744 25.6889 16.0554 25.0454 16.308C24.402 16.5606 23.6718 16.6869 22.8547 16.6869ZM22.8724 11.2751C23.3264 11.2751 23.7132 11.1646 24.0329 10.9435C24.3527 10.7225 24.5954 10.4047 24.7612 9.99026C24.927 9.57578 25.0099 9.07842 25.0099 8.49816C25.0099 7.92579 24.927 7.42448 24.7612 6.99422C24.5994 6.56396 24.3586 6.23041 24.0389 5.99356C23.7231 5.75278 23.3343 5.63238 22.8724 5.63238C22.3948 5.63238 21.9961 5.75672 21.6764 6.00541C21.3566 6.25409 21.1159 6.59553 20.954 7.02974C20.7922 7.46 20.7112 7.94948 20.7112 8.49816C20.7112 9.05473 20.7922 9.54223 20.954 9.96065C21.1198 10.3751 21.3626 10.6988 21.6823 10.9317C22.006 11.1606 22.4027 11.2751 22.8724 11.2751Z" fill="#006C35"/>
<path d="M31.4373 13.2705C30.861 13.2705 30.3419 13.1679 29.8801 12.9626C29.4222 12.7534 29.059 12.4455 28.7906 12.0389C28.5261 11.6324 28.3939 11.131 28.3939 10.535C28.3939 10.0218 28.4886 9.5975 28.6781 9.26197C28.8676 8.92645 29.1261 8.65803 29.4538 8.45671C29.7814 8.2554 30.1505 8.10342 30.561 8.00079C30.9755 7.89421 31.4037 7.81724 31.8459 7.76987C32.3787 7.71461 32.811 7.66527 33.1426 7.62185C33.4741 7.57448 33.7149 7.50343 33.8649 7.40869C34.0189 7.31 34.0958 7.15803 34.0958 6.95277V6.91724C34.0958 6.47119 33.9636 6.1258 33.6991 5.88106C33.4347 5.63633 33.0537 5.51396 32.5564 5.51396C32.0314 5.51396 31.6149 5.62843 31.307 5.85738C31.0031 6.08633 30.7978 6.35672 30.6913 6.66856L28.6899 6.38435C28.8478 5.83172 29.1084 5.36988 29.4715 4.99883C29.8347 4.62383 30.2788 4.34357 30.8037 4.15805C31.3287 3.96857 31.909 3.87384 32.5445 3.87384C32.9827 3.87384 33.4189 3.92515 33.8531 4.02778C34.2873 4.13042 34.684 4.30015 35.0432 4.53699C35.4024 4.76989 35.6906 5.08765 35.9077 5.49028C36.1287 5.89291 36.2393 6.39619 36.2393 7.00014V13.087H34.1787V11.8376H34.1077C33.9774 12.0902 33.7939 12.3271 33.557 12.5481C33.3241 12.7652 33.0301 12.9409 32.6748 13.0751C32.3235 13.2054 31.911 13.2705 31.4373 13.2705ZM31.9939 11.6955C32.4241 11.6955 32.7972 11.6106 33.1129 11.4409C33.4287 11.2672 33.6715 11.0383 33.8412 10.7541C34.0149 10.4699 34.1018 10.16 34.1018 9.82447V8.75276C34.0347 8.80802 33.9202 8.85934 33.7583 8.90671C33.6004 8.95408 33.4228 8.99552 33.2254 9.03105C33.0281 9.06658 32.8327 9.09816 32.6393 9.12579C32.4458 9.15342 32.2781 9.1771 32.136 9.19684C31.8162 9.24026 31.5301 9.31131 31.2774 9.41C31.0248 9.50868 30.8255 9.64684 30.6794 9.82447C30.5334 9.99815 30.4603 10.2231 30.4603 10.4995C30.4603 10.8942 30.6044 11.1922 30.8926 11.3935C31.1807 11.5949 31.5478 11.6955 31.9939 11.6955Z" fill="#006C35"/>
<path d="M40.0377 7.75803V13.087H37.8943V3.99226H39.943V5.53765H40.0495C40.2588 5.02844 40.5923 4.62383 41.0502 4.32384C41.512 4.02384 42.0824 3.87384 42.7614 3.87384C43.389 3.87384 43.9357 4.00805 44.4015 4.27647C44.8712 4.54489 45.2344 4.9337 45.491 5.44291C45.7515 5.95212 45.8798 6.56988 45.8758 7.29619V13.087H43.7324V7.62777C43.7324 7.01987 43.5745 6.54422 43.2587 6.2008C42.9469 5.85738 42.5147 5.68567 41.962 5.68567C41.587 5.68567 41.2535 5.76856 40.9614 5.93435C40.6732 6.09619 40.4463 6.33106 40.2805 6.63896C40.1186 6.94685 40.0377 7.31987 40.0377 7.75803Z" fill="#006C35"/>
<path d="M47.5546 13.087V3.99226H49.698V13.087H47.5546ZM48.6322 2.70147C48.2927 2.70147 48.0006 2.58898 47.7559 2.36398C47.5111 2.13503 47.3888 1.86069 47.3888 1.54095C47.3888 1.21727 47.5111 0.94293 47.7559 0.717931C48.0006 0.488985 48.2927 0.374512 48.6322 0.374512C48.9756 0.374512 49.2677 0.488985 49.5085 0.717931C49.7532 0.94293 49.8756 1.21727 49.8756 1.54095C49.8756 1.86069 49.7532 2.13503 49.5085 2.36398C49.2677 2.58898 48.9756 2.70147 48.6322 2.70147Z" fill="#006C35"/>
<path d="M55.3689 13.2646C54.4611 13.2646 53.6815 13.0652 53.0301 12.6666C52.3828 12.2679 51.8834 11.7172 51.5321 11.0146C51.1848 10.308 51.0111 9.49486 51.0111 8.57513C51.0111 7.65145 51.1887 6.83632 51.544 6.12975C51.8992 5.41922 52.4005 4.8666 53.0479 4.47186C53.6992 4.07318 54.469 3.87384 55.3571 3.87384C56.0953 3.87384 56.7486 4.01002 57.317 4.28239C57.8893 4.55081 58.3453 4.93173 58.6847 5.42515C59.0242 5.91462 59.2176 6.48698 59.265 7.14224H57.2163C57.1334 6.70409 56.936 6.33896 56.6242 6.04685C56.3163 5.7508 55.9038 5.60278 55.3867 5.60278C54.9486 5.60278 54.5637 5.7212 54.2321 5.95804C53.9005 6.19093 53.642 6.52646 53.4565 6.96461C53.2749 7.40277 53.1841 7.92776 53.1841 8.5396C53.1841 9.15934 53.2749 9.69223 53.4565 10.1383C53.638 10.5804 53.8926 10.9218 54.2203 11.1626C54.5518 11.3995 54.9407 11.5179 55.3867 11.5179C55.7025 11.5179 55.9847 11.4587 56.2334 11.3402C56.486 11.2179 56.6972 11.0422 56.867 10.8133C57.0367 10.5843 57.1532 10.306 57.2163 9.97841H59.265C59.2137 10.6218 59.0242 11.1922 58.6966 11.6896C58.3689 12.183 57.9229 12.5698 57.3584 12.8501C56.7939 13.1264 56.1308 13.2646 55.3689 13.2646Z" fill="#006C35"/>
<path d="M64.2552 0.960693H66.9433L70.5433 9.74749H70.6854L74.2854 0.960693H76.9735V13.087H74.8656V4.75607H74.7531L71.4018 13.0514H69.8268L66.4755 4.73831H66.363V13.087H64.2552V0.960693Z" fill="#006C35"/>
<path d="M81.3878 13.2705C80.8114 13.2705 80.2924 13.1679 79.8305 12.9626C79.3726 12.7534 79.0095 12.4455 78.7411 12.0389C78.4766 11.6324 78.3444 11.131 78.3444 10.535C78.3444 10.0218 78.4391 9.5975 78.6286 9.26197C78.818 8.92645 79.0766 8.65803 79.4042 8.45671C79.7318 8.2554 80.1009 8.10342 80.5115 8.00079C80.9259 7.89421 81.3542 7.81724 81.7963 7.76987C82.3292 7.71461 82.7614 7.66527 83.093 7.62185C83.4246 7.57448 83.6654 7.50343 83.8154 7.40869C83.9693 7.31 84.0463 7.15803 84.0463 6.95277V6.91724C84.0463 6.47119 83.9141 6.1258 83.6496 5.88106C83.3851 5.63633 83.0042 5.51396 82.5068 5.51396C81.9818 5.51396 81.5654 5.62843 81.2575 5.85738C80.9536 6.08633 80.7483 6.35672 80.6417 6.66856L78.6404 6.38435C78.7983 5.83172 79.0588 5.36988 79.422 4.99883C79.7851 4.62383 80.2292 4.34357 80.7542 4.15805C81.2792 3.96857 81.8595 3.87384 82.495 3.87384C82.9332 3.87384 83.3693 3.92515 83.8035 4.02778C84.2377 4.13042 84.6345 4.30015 84.9937 4.53699C85.3529 4.76989 85.641 5.08765 85.8581 5.49028C86.0792 5.89291 86.1897 6.39619 86.1897 7.00014V13.087H84.1292V11.8376H84.0581C83.9279 12.0902 83.7443 12.3271 83.5075 12.5481C83.2746 12.7652 82.9805 12.9409 82.6253 13.0751C82.2739 13.2054 81.8614 13.2705 81.3878 13.2705ZM81.9443 11.6955C82.3746 11.6955 82.7476 11.6106 83.0634 11.4409C83.3792 11.2672 83.622 11.0383 83.7917 10.7541C83.9654 10.4699 84.0522 10.16 84.0522 9.82447V8.75276C83.9851 8.80802 83.8706 8.85934 83.7088 8.90671C83.5509 8.95408 83.3733 8.99552 83.1759 9.03105C82.9785 9.06658 82.7831 9.09816 82.5897 9.12579C82.3963 9.15342 82.2285 9.1771 82.0864 9.19684C81.7667 9.24026 81.4805 9.31131 81.2279 9.41C80.9753 9.50868 80.7759 9.64684 80.6299 9.82447C80.4838 9.99815 80.4108 10.2231 80.4108 10.4995C80.4108 10.8942 80.5549 11.1922 80.843 11.3935C81.1312 11.5949 81.4983 11.6955 81.9443 11.6955Z" fill="#006C35"/>
<path d="M87.8448 16.4975V3.99226H89.9526V5.4962H90.077C90.1875 5.27515 90.3434 5.04028 90.5447 4.7916C90.7461 4.53897 91.0184 4.32383 91.3618 4.1462C91.7053 3.96463 92.1434 3.87384 92.6763 3.87384C93.3789 3.87384 94.0125 4.05344 94.577 4.41265C95.1454 4.76791 95.5954 5.29488 95.927 5.99356C96.2625 6.6883 96.4302 7.54092 96.4302 8.55145C96.4302 9.55013 96.2664 10.3988 95.9388 11.0975C95.6112 11.7962 95.1651 12.3291 94.6007 12.6962C94.0362 13.0633 93.3967 13.2468 92.6822 13.2468C92.1612 13.2468 91.729 13.16 91.3855 12.9863C91.0421 12.8126 90.7658 12.6034 90.5566 12.3587C90.3513 12.11 90.1915 11.8751 90.077 11.6541H89.9882V16.4975H87.8448ZM89.9467 8.5396C89.9467 9.12776 90.0296 9.64289 90.1954 10.085C90.3651 10.5271 90.6079 10.8725 90.9237 11.1212C91.2434 11.3659 91.6303 11.4883 92.0842 11.4883C92.5579 11.4883 92.9546 11.362 93.2743 11.1093C93.5941 10.8528 93.8349 10.5034 93.9967 10.0613C94.1625 9.61526 94.2454 9.10802 94.2454 8.5396C94.2454 7.97513 94.1645 7.47382 94.0026 7.03566C93.8408 6.59751 93.6 6.25409 93.2803 6.00541C92.9605 5.75672 92.5618 5.63238 92.0842 5.63238C91.6263 5.63238 91.2375 5.75278 90.9178 5.99356C90.598 6.23435 90.3553 6.57185 90.1895 7.00606C90.0276 7.44027 89.9467 7.95145 89.9467 8.5396Z" fill="#006C35"/>
<path d="M104.954 6.39619L103 6.60935C102.944 6.41198 102.848 6.22646 102.71 6.05277C102.575 5.87909 102.394 5.73896 102.165 5.63238C101.936 5.5258 101.656 5.47251 101.324 5.47251C100.878 5.47251 100.503 5.56922 100.199 5.76264C99.8991 5.95606 99.7511 6.20672 99.755 6.51461C99.7511 6.77909 99.8478 6.99422 100.045 7.16001C100.246 7.32579 100.578 7.46198 101.04 7.56856L102.591 7.90013C103.452 8.08566 104.091 8.37974 104.51 8.78237C104.932 9.185 105.145 9.71197 105.149 10.3633C105.145 10.9356 104.977 11.4409 104.646 11.8791C104.318 12.3133 103.862 12.6527 103.278 12.8975C102.694 13.1422 102.023 13.2646 101.265 13.2646C100.152 13.2646 99.2557 13.0317 98.5767 12.5659C97.8978 12.0962 97.4932 11.4429 97.3629 10.606L99.453 10.4047C99.5478 10.8153 99.7491 11.1251 100.057 11.3343C100.365 11.5435 100.766 11.6481 101.259 11.6481C101.768 11.6481 102.177 11.5435 102.485 11.3343C102.796 11.1251 102.952 10.8666 102.952 10.5587C102.952 10.2981 102.852 10.083 102.65 9.91328C102.453 9.74355 102.145 9.61328 101.727 9.52249L100.175 9.19684C99.303 9.01526 98.6577 8.70934 98.2392 8.27908C97.8208 7.84487 97.6136 7.29619 97.6175 6.63303C97.6136 6.07251 97.7655 5.58699 98.0734 5.17646C98.3853 4.76199 98.8175 4.44226 99.3701 4.21726C99.9267 3.98831 100.568 3.87384 101.294 3.87384C102.36 3.87384 103.199 4.10081 103.811 4.55476C104.427 5.0087 104.808 5.62251 104.954 6.39619Z" fill="#006C35"/>
</svg>
