<svg width="28" height="28" viewBox="0 0 28 28" fill="none" xmlns="http://www.w3.org/2000/svg">
<path fill-rule="evenodd" clip-rule="evenodd" d="M24.5652 11.2914C24.5652 18.6109 15.5688 26.4799 13.8696 27.9007C13.7099 28.0343 13.4801 28.0328 13.3216 27.8977C12.2408 26.9756 8.18382 23.3777 5.38878 19.0382C2.58617 19.9228 0.603423 20.047 0.114771 19.2006C-0.704863 17.781 2.94214 14.0863 8.60557 10.3759C12.7596 11.7386 15.3112 8.70143 17.0828 6.59274C17.6131 5.96154 18.0735 5.41353 18.4861 5.09161C18.6452 4.96745 18.6483 4.65602 18.4643 4.57305C13.0887 2.14917 8.19492 3.74599 7.66724 8.16281C7.64562 8.34371 7.84592 8.45943 7.99949 8.36141C10.0657 7.0426 12.4369 6.06958 14.2247 5.61064C14.4772 5.54583 14.5352 5.79895 14.2926 5.89421C12.601 6.5583 10.9071 7.47127 9.39029 8.41485C9.38179 8.41464 9.37319 8.41669 9.36554 8.42124C6.72987 9.98916 4.47472 11.6176 2.80613 13.112C2.68796 12.5019 2.624 11.8936 2.624 11.2914C2.624 5.05534 7.53571 0 13.5946 0C16.8596 0 19.7914 1.46796 21.8011 3.79761C24.6034 2.91323 26.5859 2.78909 27.0745 3.63541C27.7311 4.77261 25.5215 7.36969 21.7052 10.2652C20.7872 10.9918 19.6977 11.7621 18.4779 12.5406C14.3861 11.2631 11.8627 14.2667 10.1061 16.3575C9.57581 16.9887 9.1154 17.5367 8.70283 17.8586C8.5437 17.9828 8.54059 18.2942 8.72459 18.3772C14.1002 20.801 18.994 19.2042 19.5217 14.7874C19.5433 14.6065 19.343 14.4908 19.1895 14.5888C17.1232 15.9076 14.752 16.8806 12.9642 17.3396C12.7117 17.4044 12.6537 17.1513 12.8964 17.056C14.5902 16.391 16.2862 15.4765 17.8046 14.5316C17.8112 14.531 17.8177 14.529 17.8236 14.5255C20.5028 12.9316 22.7889 11.2752 24.4653 9.7607C24.5312 10.2613 24.5652 10.7723 24.5652 11.2914ZM23.7209 6.93983C24.6055 6.03138 25.0124 5.32764 24.7951 4.95118C24.5826 4.58312 23.8008 4.57541 22.6174 4.86669C23.0521 5.51207 23.423 6.20633 23.7209 6.93983ZM3.6225 15.7402C2.63174 16.7237 2.16476 17.4866 2.39435 17.8842C2.6153 18.2669 3.4517 18.2601 4.71503 17.9326C4.30277 17.2142 3.93265 16.4806 3.6225 15.7402Z" fill="#006C35"/>
</svg>
