<svg width="63" height="65" viewBox="0 0 63 65" fill="none" xmlns="http://www.w3.org/2000/svg">
<path fill-rule="evenodd" clip-rule="evenodd" d="M56.5387 26.5006C56.5387 42.943 36.644 60.6003 32.3252 64.2396C31.8415 64.6473 31.1705 64.6437 30.6907 64.2314C27.9686 61.8922 19.0028 53.8406 12.7791 44.1779C6.38331 46.1966 1.85846 46.4801 0.743344 44.5487C-1.12699 41.3092 7.1951 32.8782 20.1185 24.4115C29.5981 27.5216 35.421 20.5908 39.4637 15.7788C40.5344 14.5044 41.4802 13.3787 42.336 12.6274C42.7968 12.2228 42.7823 11.2393 42.2201 10.9944C30.2464 5.77761 19.4159 9.30971 18.022 19.027C17.9434 19.5749 18.5499 19.9303 19.0186 19.636C23.1761 17.0251 27.8376 15.0267 31.6366 13.8995C32.3959 13.6743 32.5723 14.3877 31.8431 14.6964C28.3961 16.1556 24.9804 18.0255 21.888 19.9503C21.865 19.9511 21.8421 19.9574 21.8214 19.9697C15.8211 23.5415 10.6867 27.2501 6.88573 30.654C6.61622 29.2621 6.47032 27.8743 6.47032 26.5006C6.47032 12.2703 17.6785 0.734375 31.5045 0.734375C38.9547 0.734375 45.6448 4.08401 50.2307 9.39988C56.6249 7.38203 61.1486 7.09886 62.2635 9.03001C63.7604 11.6226 58.7289 17.5404 50.0352 24.1405C47.9356 25.8039 45.4414 27.5681 42.6474 29.3511C33.3106 26.4367 27.5526 33.2903 23.5443 38.0613C22.4737 39.3356 21.5279 40.4614 20.6721 41.2127C20.2112 41.6172 20.2258 42.6007 20.788 42.8456C32.7617 48.0624 43.5922 44.5303 44.9861 34.813C45.0647 34.2651 44.4582 33.9097 43.9894 34.2041C39.8319 36.8149 35.1705 38.8134 31.3714 39.9405C30.6122 40.1658 30.4357 39.4524 31.165 39.1437C34.6179 37.6819 38.0394 35.8081 41.1359 33.8798C41.1527 33.8771 41.1691 33.8713 41.1843 33.8622C47.2854 30.2305 52.4913 26.4574 56.3105 23.0068C56.461 24.1493 56.5387 25.3156 56.5387 26.5006ZM54.6117 16.5698C56.6297 14.4972 57.558 12.8916 57.0621 12.0327C56.5772 11.1929 54.7936 11.1752 52.0938 11.8396C53.0855 13.3122 53.9319 14.8962 54.6117 16.5698ZM8.74854 36.6516C6.48717 38.8964 5.42124 40.6374 5.94522 41.545C6.44946 42.4184 8.35843 42.4025 11.2418 41.655C10.301 40.0155 9.4563 38.3415 8.74854 36.6516Z" fill="white"/>
</svg>
