<svg width="20" height="20" viewBox="0 0 20 20" fill="none" xmlns="http://www.w3.org/2000/svg">
<path fill-rule="evenodd" clip-rule="evenodd" d="M10.0004 19.5984C15.3023 19.5984 19.6004 15.3004 19.6004 9.99844C19.6004 4.6965 15.3023 0.398438 10.0004 0.398438C4.69846 0.398438 0.400391 4.6965 0.400391 9.99844C0.400391 15.3004 4.69846 19.5984 10.0004 19.5984ZM3.19853 7.63133C3.6469 6.34276 4.45108 5.22081 5.49344 4.38311C5.8149 4.87403 6.36978 5.19833 7.00041 5.19833C7.99452 5.19833 8.80041 6.00422 8.80041 6.99833V7.59833C8.80041 8.92381 9.87492 9.99833 11.2004 9.99833C12.5259 9.99833 13.6004 8.92381 13.6004 7.59833C13.6004 6.47019 14.3788 5.52385 15.4278 5.26707C16.5317 6.53237 17.2004 8.18727 17.2004 9.99834C17.2004 10.4073 17.1663 10.8082 17.1008 11.1985H16.0004C14.6749 11.1985 13.6004 12.2731 13.6004 13.5985V16.2351C12.5413 16.8477 11.3117 17.1983 10.0003 17.1983V14.7984C10.0003 13.473 8.92577 12.3984 7.60029 12.3984C6.27481 12.3984 5.20029 11.3239 5.20029 9.99844C5.20029 8.80863 4.33448 7.82103 3.19853 7.63133Z" fill="#4C5651"/>
</svg>
