<svg width="19" height="19" viewBox="0 0 19 19" fill="none" xmlns="http://www.w3.org/2000/svg">
<g clip-path="url(#clip0_1419_11272)">
<path d="M9.72852 0.875C4.75602 0.875 0.728516 4.835 0.728516 9.719C0.728516 13.6272 3.30702 16.9415 6.88227 18.11C7.33227 18.1932 7.49727 17.9195 7.49727 17.6847C7.49727 17.4748 7.48977 16.9183 7.48602 16.181C4.98252 16.7143 4.45452 14.9945 4.45452 14.9945C4.04502 13.9738 3.45327 13.7008 3.45327 13.7008C2.63802 13.1525 3.51627 13.1637 3.51627 13.1637C4.42002 13.2253 4.89477 14.075 4.89477 14.075C5.69727 15.4272 7.00152 15.0365 7.51602 14.8107C7.59702 14.2385 7.82877 13.8492 8.08602 13.628C6.08727 13.4067 3.98652 12.6462 3.98652 9.25775C3.98652 8.2925 4.33527 7.5035 4.91277 6.88475C4.81152 6.66125 4.50777 5.762 4.99152 4.544C4.99152 4.544 5.74527 4.307 7.46652 5.45075C8.18652 5.25425 8.95152 5.15675 9.71652 5.15225C10.4815 5.15675 11.2465 5.25425 11.9665 5.45075C13.6765 4.307 14.4303 4.544 14.4303 4.544C14.914 5.762 14.6103 6.66125 14.5203 6.88475C15.094 7.5035 15.4428 8.2925 15.4428 9.25775C15.4428 12.6553 13.339 13.403 11.3365 13.6205C11.6515 13.886 11.944 14.4283 11.944 15.257C11.944 16.4405 11.9328 17.3915 11.9328 17.6788C11.9328 17.9105 12.0903 18.1873 12.5515 18.0988C16.1523 16.9377 18.7285 13.6213 18.7285 9.719C18.7285 4.835 14.6988 0.875 9.72852 0.875Z" fill="#26312C"/>
</g>
<defs>
<clipPath id="clip0_1419_11272">
<rect width="18" height="18" fill="white" transform="translate(0.728516 0.5)"/>
</clipPath>
</defs>
</svg>
