<svg width="19" height="18" viewBox="0 0 19 18" fill="none" xmlns="http://www.w3.org/2000/svg">
<path d="M2.72459 17.9785C2.46093 17.9122 2.32317 17.8029 1.61936 17.1013C0.78197 16.2666 0.728275 16.1851 0.729594 15.7509C0.73093 15.2657 0.584324 15.4392 3.2597 12.7594C5.96163 10.053 5.8225 10.1709 6.31134 10.1722C6.53732 10.1729 6.59418 10.1856 6.7764 10.2773L6.98401 10.3818L7.63881 9.72767L8.29362 9.07353L8.12956 8.81804C7.81033 8.32089 7.50944 7.59548 7.37426 6.99706C6.99263 5.30765 7.40403 3.52045 8.48654 2.16504C10.354 -0.173186 13.7088 -0.691859 16.1899 0.974069C17.5514 1.88824 18.4363 3.30034 18.6884 4.96091C18.7416 5.31196 18.7419 6.14573 18.689 6.51608C18.5046 7.80455 17.9556 8.89962 17.0333 9.8188C16.5581 10.2923 16.1771 10.5667 15.5723 10.8709C14.8523 11.233 14.2415 11.4029 13.4114 11.472C12.2288 11.5704 10.9176 11.2436 9.91381 10.6004L9.65806 10.4365L9.00326 11.0906L8.34846 11.7448L8.45304 11.9522C8.54484 12.1342 8.55771 12.191 8.55829 12.4168C8.55963 12.9045 8.67545 12.7678 5.98451 15.4527C3.91221 17.5204 3.59321 17.8263 3.43449 17.8986C3.23119 17.9912 2.91592 18.0267 2.72459 17.9785ZM13.8472 10.463C15.3427 10.1895 16.6487 9.19485 17.3033 7.83076C18.347 5.65593 17.645 3.09999 15.6331 1.74878C15.1531 1.42644 14.4829 1.15472 13.8538 1.02745C13.4181 0.939287 12.496 0.948304 12.0415 1.04517C11.363 1.18977 10.7401 1.45943 10.2003 1.84221C9.86674 2.07876 9.31671 2.62802 9.08373 2.95722C7.79272 4.78142 7.90952 7.20594 9.36949 8.88891C10.1179 9.7516 11.1529 10.3179 12.2983 10.4913C12.6786 10.5489 13.4552 10.5347 13.8472 10.463ZM12.5229 9.81341C12.007 9.73179 11.5695 9.60091 11.215 9.42206L11.0143 9.32087V8.39144V7.46201H10.6607C10.3532 7.46201 9.93194 7.52233 9.62773 7.60992C9.58738 7.62154 9.57067 7.66824 9.56354 7.78936L9.55388 7.9531L9.40041 7.6617C9.06389 7.02272 8.94402 6.51969 8.94403 5.74652C8.94403 5.14876 8.98654 4.87354 9.15295 4.39375C9.24129 4.13907 9.45898 3.688 9.5542 3.56237C9.59558 3.50777 9.60008 3.51976 9.60101 3.68677L9.60201 3.87158L10.6532 3.86314L11.7044 3.85469L11.7137 3.59015L11.7231 3.32562H11.3687H11.0143V2.74909V2.17257L11.1399 2.10859C11.3469 2.00307 11.7314 1.85777 11.9492 1.80274C12.0617 1.7743 12.1772 1.74421 12.2058 1.73586C12.2508 1.72271 12.2542 1.73923 12.2313 1.85779C12.187 2.08659 12.1986 2.7145 12.2513 2.93785C12.3557 3.38001 12.6151 3.70728 12.9675 3.84134C13.178 3.92138 13.5748 3.93654 13.8068 3.87341C14.028 3.81321 14.2735 3.63575 14.3983 3.44567C14.5831 3.16455 14.6482 2.91904 14.666 2.43636L14.6818 2.01203L14.9413 2.14688C15.2401 2.30221 15.6035 2.56436 15.8691 2.81627C16.0478 2.98572 16.0537 2.99664 16.0537 3.15847V3.32562H15.7006H15.3475V3.59817V3.87073H15.9991H16.6507L16.7209 4.01502L16.7911 4.15932L16.4304 4.15864C16.1819 4.15798 15.9573 4.18034 15.7086 4.23008L15.3475 4.30227V4.56752C15.3475 4.71341 15.3531 4.83278 15.36 4.83278C15.3669 4.83278 15.5129 4.80391 15.6845 4.76865C15.8561 4.73337 16.0094 4.70452 16.0251 4.70452C16.0411 4.70452 16.0537 5.12542 16.0537 5.66539V6.62625L15.7086 6.63537L15.3636 6.64447L15.3542 6.90843L15.3449 7.17238L16.0987 7.181L16.8524 7.1896L16.7969 7.31539L16.7413 7.44116L16.3413 7.4435C15.9715 7.44584 15.9276 7.45271 15.7596 7.53511C15.3212 7.7502 15.0854 8.2381 15.0782 8.94522L15.0747 9.29012L14.8601 9.4028C14.6728 9.50119 14.0175 9.73864 13.9334 9.73864C13.915 9.73864 13.9031 9.29167 13.9031 8.60033V7.46201H13.5536C13.3286 7.46201 13.0912 7.4851 12.8875 7.5268C12.4169 7.62315 12.4587 7.58862 12.4587 7.88102C12.4587 8.06841 12.4697 8.13538 12.5004 8.13538C12.5234 8.13538 12.6715 8.10685 12.8295 8.07195C12.9874 8.03706 13.1275 8.0082 13.1408 8.00782C13.154 8.00749 13.1649 8.41835 13.1649 8.92098V9.83483L12.884 9.83047C12.7295 9.82813 12.5671 9.82038 12.5229 9.81341ZM11.0538 7.14849C11.384 7.00259 11.6343 6.66844 11.7359 6.23792C11.7969 5.97948 11.7977 5.39637 11.7375 5.1126C11.6428 4.66583 11.3787 4.326 11.0191 4.18813C10.7636 4.09017 10.3327 4.09079 10.0751 4.18946C9.71532 4.32735 9.46198 4.66535 9.36077 5.14254C9.30135 5.42272 9.30114 5.941 9.36044 6.22008C9.45907 6.68503 9.7536 7.05134 10.1271 7.17349C10.3882 7.25891 10.8309 7.24697 11.0538 7.14849ZM10.3112 6.60987C10.1797 6.49931 10.1177 6.27987 10.0947 5.84271C10.0742 5.45188 10.1187 5.04774 10.2015 4.87345C10.2772 4.71402 10.4185 4.63328 10.591 4.65083C10.8672 4.67893 10.9733 4.89431 11.0045 5.48999C11.037 6.11097 10.9344 6.56673 10.7426 6.65406C10.5979 6.71989 10.4204 6.7017 10.3112 6.60987ZM13.8485 7.17309C14.4073 7.00066 14.6984 6.42326 14.6647 5.55412C14.636 4.8144 14.3718 4.35819 13.8634 4.17028C13.6523 4.09228 13.1937 4.10142 12.9676 4.18813C12.6098 4.32531 12.3551 4.65088 12.2475 5.10852C12.1726 5.42756 12.199 6.15113 12.2954 6.41985C12.4459 6.83915 12.7289 7.11717 13.0922 7.20267C13.3084 7.25356 13.6283 7.24104 13.8485 7.17309ZM13.2253 6.64425C13.0394 6.54336 12.9545 6.1524 12.9819 5.52416C13.0028 5.0459 13.0366 4.9015 13.1599 4.76367C13.3359 4.56692 13.6661 4.62277 13.7831 4.86906C13.9114 5.1392 13.9333 5.99048 13.8216 6.3663C13.7582 6.57926 13.6259 6.69291 13.4433 6.69116C13.3696 6.69049 13.2715 6.66934 13.2253 6.64425ZM10.0499 8.5632C9.77905 8.28043 9.67905 8.13973 9.73617 8.1218C9.84356 8.0881 10.2555 8.00789 10.2662 8.0186C10.2728 8.0252 10.2741 8.1998 10.2692 8.4066L10.2601 8.78259L10.0499 8.5632ZM15.8792 8.52016C15.9049 8.29721 15.9937 8.09083 16.0908 8.02803C16.1971 7.95933 16.3289 7.93216 16.3901 7.96635C16.435 7.99151 16.4226 8.02165 16.2997 8.18569C16.2212 8.29028 16.09 8.44801 16.0079 8.53619L15.8588 8.69652L15.8792 8.52016ZM16.795 5.40182L16.7981 4.17533L16.8939 4.46391C17.0835 5.0345 17.1504 5.64715 17.0834 6.19857C17.0308 6.63139 17.0321 6.62831 16.902 6.62831H16.7918L16.795 5.40182ZM13.2736 3.3583C13.1778 3.3196 13.0754 3.1793 13.0302 3.02481C12.9864 2.87462 12.9744 1.96427 13.0139 1.77845C13.0376 1.66656 13.0474 1.6582 13.1547 1.6582C13.385 1.6582 13.8364 1.73351 13.8521 1.77457C13.8608 1.79713 13.8775 1.95694 13.8892 2.1297C13.9137 2.49054 13.8621 2.99446 13.7839 3.15914C13.6941 3.3483 13.4677 3.43665 13.2736 3.3583ZM9.75843 3.26948C9.77506 3.23861 9.89767 3.09794 10.0309 2.95685L10.2731 2.70032L10.2744 3.01295L10.2758 3.3256H10.0018C9.75076 3.3256 9.7307 3.32089 9.75843 3.26948ZM11.0402 15.9961C10.1453 15.7377 9.40445 15.5174 9.39393 15.5064C9.37422 15.4858 10.2991 12.209 10.3358 12.1695C10.3541 12.1499 13.5208 13.0358 13.6505 13.0969C13.6964 13.1185 13.6479 13.3139 13.2569 14.6767C13.0116 15.532 12.7961 16.286 12.778 16.3521C12.7599 16.4182 12.7276 16.4708 12.7063 16.469C12.6849 16.4674 11.9352 16.2544 11.0402 15.9961ZM13.2291 16.3876C13.2291 16.3476 14.1493 13.1369 14.1639 13.1259C14.1972 13.1009 17.4098 12.2049 17.4221 12.2172C17.4366 12.2317 16.524 15.4703 16.5001 15.4893C16.4837 15.5022 13.3998 16.3814 13.3013 16.4012C13.2616 16.4091 13.2291 16.4032 13.2291 16.3876ZM7.89118 14.954C8.52605 14.3165 9.09182 13.7344 9.14846 13.6605C9.27615 13.4938 9.45363 13.1104 9.50189 12.8971C9.52183 12.8089 9.5417 12.6331 9.54603 12.5065L9.55391 12.2762L9.69125 12.2375C9.76678 12.2162 9.83437 12.2046 9.84144 12.2117C9.85905 12.2292 8.93524 15.4523 8.90446 15.4806C8.89093 15.4931 8.39769 15.6405 7.80837 15.8082L6.73689 16.1132L7.89118 14.954ZM14.1145 12.6606C14.108 12.6497 14.0879 12.587 14.0699 12.5214L14.0372 12.402L14.1547 12.3822C15.1617 12.212 16.2402 11.7397 17.0897 11.0968C17.211 11.005 17.2798 10.9705 17.2887 10.997C17.3299 11.1192 17.4939 11.7096 17.4882 11.7153C17.4627 11.7408 14.1239 12.6763 14.1145 12.6606ZM2.79221 11.6868C2.75337 11.6553 1.90604 8.7845 1.8421 8.46777C1.82931 8.40436 1.95235 8.43463 3.47418 8.86919C5.06653 9.3239 5.12085 9.34198 5.143 9.42471C5.16274 9.4985 5.14985 9.52139 5.04885 9.59168C4.98448 9.63648 4.46969 10.1352 3.90487 10.7C3.34005 11.2648 2.86977 11.7268 2.85981 11.7268C2.84985 11.7268 2.81941 11.7088 2.79221 11.6868ZM3.40717 8.4009C2.51565 8.14488 1.78362 7.93333 1.78042 7.9308C1.76926 7.92195 2.7253 4.60547 2.74456 4.58624C2.76133 4.56949 6.06571 5.49436 6.10001 5.52539C6.10699 5.5317 5.89818 6.28749 5.63601 7.20494C5.20315 8.71967 5.1533 8.87273 5.09372 8.86972C5.05763 8.86805 4.29868 8.65693 3.40717 8.4009ZM5.62882 8.80458C5.63794 8.78049 5.78787 8.26299 5.96196 7.65455L6.27849 6.5483L6.31976 6.78879C6.39125 7.20547 6.51803 7.68042 6.66832 8.09461C6.74821 8.31477 6.80905 8.49885 6.80352 8.50369C6.79801 8.50853 6.55516 8.57986 6.26387 8.66221C5.97258 8.74456 5.70679 8.82013 5.67323 8.83014C5.63041 8.84292 5.61716 8.83532 5.62882 8.80458ZM4.4022 4.58483C3.51068 4.32864 2.77355 4.10706 2.76413 4.09244C2.73349 4.04493 1.82836 0.852062 1.84173 0.8387C1.86054 0.819912 5.07688 1.74199 5.10758 1.77496C5.14201 1.81195 6.06783 5.0582 6.04273 5.05396C6.03194 5.05229 5.29372 4.84103 4.4022 4.58483ZM6.01318 3.29993C5.83346 2.67043 5.65917 2.0604 5.62588 1.94432L5.56533 1.73327L6.83742 1.37096C7.53706 1.17169 8.13116 1.00056 8.15764 0.990659C8.18413 0.980747 8.09648 1.09447 7.96289 1.24336C7.25245 2.03511 6.78669 2.88352 6.4921 3.92247C6.43719 4.11615 6.39226 4.30556 6.39226 4.3434C6.39226 4.56286 6.30575 4.32471 6.01318 3.29993Z" fill="#26312C"/>
</svg>
