<svg width="22" height="14" viewBox="0 0 22 14" fill="none" xmlns="http://www.w3.org/2000/svg">
<path d="M21.3122 4.18457H20.1122C19.7808 4.18457 19.5122 4.4532 19.5122 4.78457V9.58457C19.5122 9.91594 19.7808 10.1846 20.1122 10.1846H21.3122C21.6436 10.1846 21.9122 9.91594 21.9122 9.58457V4.78457C21.9122 4.4532 21.6436 4.18457 21.3122 4.18457Z" fill="white"/>
<path d="M3.91064 4.18457H7.51064V10.1846H3.91064V4.18457ZM8.11064 4.18457H11.7106V10.1846H8.11064V4.18457ZM12.3106 4.18457H15.9106V10.1846H12.3106V4.18457Z" fill="white"/>
<path fill-rule="evenodd" clip-rule="evenodd" d="M15.913 0.584961H3.91299C2.95821 0.584961 2.04253 0.964246 1.3674 1.63938C0.692273 2.31451 0.312988 3.23018 0.312988 4.18496V10.185C0.312988 11.1397 0.692273 12.0554 1.3674 12.7305C2.04253 13.4057 2.95821 13.785 3.91299 13.785H15.913C16.8678 13.785 17.7834 13.4057 18.4586 12.7305C19.1337 12.0554 19.513 11.1397 19.513 10.185V4.18496C19.513 3.23018 19.1337 2.31451 18.4586 1.63938C17.7834 0.964246 16.8678 0.584961 15.913 0.584961ZM2.71299 4.18496C2.71299 3.8667 2.83942 3.56148 3.06446 3.33643C3.2895 3.11139 3.59473 2.98496 3.91299 2.98496H15.913C16.2312 2.98496 16.5365 3.11139 16.7615 3.33643C16.9866 3.56148 17.113 3.8667 17.113 4.18496V10.185C17.113 10.5032 16.9866 10.8084 16.7615 11.0335C16.5365 11.2585 16.2312 11.385 15.913 11.385H3.91299C3.59473 11.385 3.2895 11.2585 3.06446 11.0335C2.83942 10.8084 2.71299 10.5032 2.71299 10.185V4.18496Z" fill="white"/>
</svg>
