<svg width="13" height="11" viewBox="0 0 13 11" fill="none" xmlns="http://www.w3.org/2000/svg">
<path d="M2.38468 3.02482C2.23884 2.73899 1.88885 2.62231 1.60302 2.76231C1.22968 2.94897 0.868017 3.25816 0.59385 3.51483C0.354684 3.73066 0.343011 4.10399 0.558844 4.33732C0.675511 4.45982 0.833011 4.52399 0.990511 4.52399C1.13051 4.52399 1.27051 4.47148 1.38718 4.37231C1.50384 4.26731 1.85384 3.94066 2.12801 3.8065C2.41384 3.66066 2.53051 3.31065 2.39051 3.02482H2.38468Z" fill="white"/>
<path d="M11.8755 3.41262C10.318 2.03595 8.33468 1.27763 6.29301 1.27763C5.33051 1.27763 4.39134 1.44097 3.49301 1.76181C3.47551 1.76764 3.45801 1.78514 3.44051 1.79681L2.58301 0.880966C2.36134 0.647633 1.99385 0.630139 1.76052 0.851805C1.52718 1.07347 1.51552 1.44096 1.73135 1.67429L9.89801 10.4243C10.0147 10.5468 10.1663 10.6109 10.3238 10.6109C10.4638 10.6109 10.6097 10.5584 10.7205 10.4534C10.9538 10.2318 10.9655 9.86428 10.7497 9.63095L6.44468 5.01678C7.73385 5.05762 8.93551 5.60012 9.85135 6.56262C9.96801 6.68512 10.1197 6.74345 10.2713 6.74345C10.4172 6.74345 10.563 6.69101 10.6738 6.58017C10.9072 6.35851 10.9188 5.99095 10.6972 5.75762C9.52468 4.52096 7.95551 3.84431 6.29301 3.84431C6.00134 3.84431 5.70968 3.86763 5.42385 3.90847C5.42385 3.90847 5.41801 3.90847 5.41218 3.90847L4.30968 2.72429C4.95134 2.53762 5.61634 2.43846 6.29301 2.43846C8.04884 2.43846 9.75801 3.09181 11.1055 4.28181C11.2163 4.38098 11.3563 4.42764 11.4905 4.42764C11.6538 4.42764 11.8113 4.36346 11.928 4.22929C12.1438 3.99013 12.1205 3.61681 11.8755 3.40681V3.41262Z" fill="white"/>
<path d="M4.07018 4.86849C3.90684 4.58849 3.55102 4.49516 3.27102 4.6585C2.79268 4.93266 2.35518 5.27682 1.96434 5.67349C1.73684 5.90099 1.74268 6.27432 1.96434 6.49599C2.08101 6.60682 2.22684 6.66516 2.37268 6.66516C2.51851 6.66516 2.67602 6.60682 2.78685 6.49016C3.10768 6.16349 3.46351 5.88932 3.84851 5.66182C4.12851 5.49849 4.22184 5.14266 4.05851 4.86266L4.07018 4.86849Z" fill="white"/>
<path d="M5.85547 6.91062C5.76214 6.60146 5.43547 6.43229 5.12631 6.52562C4.51964 6.71229 3.92464 7.27229 3.62714 7.58729C3.40547 7.82062 3.41131 8.18807 3.65047 8.40973C3.76131 8.51473 3.90714 8.57312 4.05297 8.57312C4.20464 8.57312 4.36214 8.51479 4.47297 8.39229C4.83464 8.01312 5.22547 7.72146 5.47047 7.64562C5.77964 7.55229 5.94881 7.22562 5.85547 6.91646V6.91062Z" fill="white"/>
<path d="M6.24089 10.5911C6.64362 10.5911 6.97005 10.2647 6.97005 9.86198C6.97005 9.4593 6.64362 9.13281 6.24089 9.13281C5.83815 9.13281 5.51172 9.4593 5.51172 9.86198C5.51172 10.2647 5.83815 10.5911 6.24089 10.5911Z" fill="white"/>
</svg>
