<svg width="62" height="50" viewBox="0 0 62 50" fill="none" xmlns="http://www.w3.org/2000/svg">
<path d="M60.5909 20.9601L49.6939 4.70862C48.8484 3.39347 47.0636 3.01771 45.7484 3.95711L42.2727 6.21165C40.9575 7.05711 40.6757 8.84196 41.5212 10.1571L42.4606 11.5662C39.5484 11.7541 36.7303 10.5329 36.7303 10.4389C34.006 9.31165 31.0939 9.96923 28.9333 10.8147C27.4303 9.59347 24.9878 8.37226 22.8272 7.62074C23.6727 6.30559 23.3909 4.61468 22.1696 3.67529L18.7878 1.3268C17.5666 0.387409 15.6878 0.763166 14.7484 1.98438L1.50298 20.1147C0.563587 21.4298 0.845405 23.2147 2.16056 24.1541L5.44844 26.5965C5.91813 26.9723 6.57571 27.1601 7.13934 27.1601C7.9848 27.1601 8.64237 26.7844 9.20601 26.2207C10.3333 27.348 11.4606 28.3813 12.306 29.0389L10.2393 32.045C9.01813 33.9238 9.48783 36.5541 11.4606 37.7753C12.4939 38.4329 13.7151 38.6207 15.0303 38.245C15.1242 39.4662 15.7818 40.5935 16.8151 41.345C17.4727 41.8147 18.3181 42.0026 19.0696 42.0026C19.5393 42.0026 19.9151 41.9086 20.2909 41.8147C20.3848 43.0359 21.0424 44.1632 22.0757 44.9147C22.7333 45.3844 23.5787 45.5723 24.3303 45.5723C24.706 45.5723 25.1757 45.4783 25.5515 45.3844C25.6454 46.5117 26.303 47.6389 27.3363 48.3904L27.5242 48.4844C29.403 49.7056 31.9393 49.2359 33.1606 47.3571C33.6303 46.6056 34.006 46.3238 34.2878 45.2904L34.8515 45.6662C36.4484 46.7935 38.703 46.4177 39.8303 44.7268C40.206 44.1632 40.4878 43.4117 40.4878 42.6601C41.803 42.848 43.2121 42.2844 43.9636 41.1571C44.5272 40.4056 44.7151 39.3723 44.5272 38.245C45.6545 38.0571 46.4999 37.4935 47.0636 36.742C47.5333 36.0844 47.7212 35.4268 47.7212 34.6753C49.0363 34.8632 50.4454 34.2995 51.1969 33.1723C52.0424 31.8571 52.0424 30.1662 51.009 28.851C51.6666 27.9117 52.0424 27.0662 52.2303 26.3147L52.3242 26.5026C53.1696 27.8177 54.9545 28.1935 56.2696 27.2541L59.8393 24.9056C61.1545 24.0601 61.4363 22.2753 60.5909 20.9601ZM6.57571 25.0935L3.28783 22.651C2.81813 22.2753 2.72419 21.7117 3.09995 21.242L16.3454 3.01771C16.7212 2.54801 17.2848 2.45407 17.7545 2.82983L21.0424 5.27226C21.5121 5.55408 21.606 6.21165 21.2303 6.68135L7.9848 24.8117C7.60904 25.2813 6.95147 25.3753 6.57571 25.0935ZM12.4 36.2723C11.3666 35.6147 11.0848 34.2056 11.7424 33.1723L16.1575 26.7844C16.8151 25.751 18.2242 25.4692 19.3515 26.1268C20.3848 26.8783 20.6666 28.2874 20.009 29.2268L15.5939 35.6147C14.9363 36.648 13.4333 36.9298 12.4 36.2723ZM17.7545 39.842C16.7212 39.1844 16.4393 37.7753 17.0969 36.742L20.009 32.5147C20.6666 31.4813 22.0757 31.1995 23.203 31.8571C24.2363 32.5147 24.5181 33.9238 23.8606 34.9571L20.9484 39.1844C20.2909 40.2177 18.7878 40.4995 17.7545 39.842ZM23.203 43.4117C22.1696 42.7541 21.8878 41.345 22.5454 40.3117L23.9545 38.4329C25.6454 35.8965 29.403 38.4329 27.806 40.8753C26.8666 42.0965 27.1484 41.8147 26.4909 42.7541C25.6454 43.6935 24.1424 44.0692 23.203 43.4117ZM32.2212 45.3844L31.5636 46.3238C30.906 47.2632 29.4969 47.545 28.5575 46.9814L28.3696 46.8874C27.3363 46.2298 27.0545 44.9147 27.7121 43.8813C27.806 43.7874 28.6515 42.5662 28.5575 42.6601C30.5303 40.6874 33.7242 43.2238 32.2212 45.3844ZM49.6939 32.1389C49.1303 32.8904 48.0969 33.0783 47.3454 32.6086L40.4878 27.8177C40.3939 27.7238 40.206 27.7238 40.0181 27.6298C39.7363 27.6298 39.3606 27.7238 39.1727 28.0056C38.8909 28.3813 38.9848 29.0389 39.3606 29.3207L45.0909 33.3601C46.9696 34.6753 44.9969 37.4935 43.1181 36.1783L37.9515 32.5147C37.4818 32.2329 36.9181 32.3268 36.6363 32.7026C36.3545 33.1723 36.4484 33.7359 36.8242 34.0177L41.9909 37.6814C42.7424 38.245 42.9303 39.2783 42.4606 40.1238C41.8969 40.8753 40.8636 41.1571 40.0181 40.5935C39.4545 40.2177 35.1333 37.3056 35.4151 37.4935L34.9454 37.2117C34.4757 36.9298 33.9121 37.0238 33.6303 37.4935C33.4424 37.7753 33.4424 38.245 33.6303 38.5268C33.8181 38.8086 34.006 38.8086 34.4757 39.1844C37.106 41.1571 38.609 41.345 38.609 42.848C38.609 44.1632 37.106 45.1026 35.8848 44.2571L34.1939 43.0359C33.6303 41.1571 31.6575 39.9359 29.7787 40.1238C29.9666 38.6207 29.309 37.0238 27.9939 36.1783C26.8666 35.4268 25.9272 35.5207 25.7393 35.5207C26.5848 33.7359 25.9272 31.4813 24.2363 30.3541C23.5787 29.8844 22.7333 29.6965 21.8878 29.6965C22.5454 27.9117 21.9818 25.845 20.2909 24.7177C18.4121 23.4965 15.7818 23.9662 14.5606 25.845L13.3393 27.6298C12.4939 26.9723 11.3666 25.9389 10.3333 24.8117L21.606 9.40559C23.6727 10.1571 25.6454 11.0965 26.9606 11.942C26.303 12.3177 25.8333 12.5995 25.6454 12.7874C23.2969 14.0086 22.5454 15.6995 22.2636 16.9207C21.8878 19.2692 23.9545 21.3359 27.2424 21.0541C31.7515 20.6783 31.6575 18.6117 33.9121 17.7662C34.1939 17.6723 34.5696 17.7662 34.7575 17.9541C50.3515 30.6359 49.1303 29.6965 49.2242 29.6965C50.0696 30.2601 50.2575 31.3874 49.6939 32.1389ZM50.5393 23.6844C50.6333 24.1541 50.9151 25.6571 49.5999 27.6298L36.0727 16.3571C35.3212 15.7935 34.2878 15.6056 33.4424 15.8874C30.2484 17.0147 31.3757 18.7056 27.2424 19.0814C25.7393 19.1753 24.0484 18.6117 24.2363 17.1086C24.4242 15.8874 25.2696 14.948 26.6787 14.1965L26.7727 14.1026C26.8666 14.1026 31.8454 10.4389 35.8848 12.1298C36.0727 12.2238 39.8303 13.9147 43.5878 13.2571C44.3393 14.3844 41.0515 9.49953 50.5393 23.6844ZM58.806 23.3086L55.2363 25.6571C54.7666 25.9389 54.203 25.845 53.9212 25.3753L43.1181 9.12377C42.8363 8.65408 42.9303 8.09044 43.4 7.80862L46.9696 5.46014C47.4393 5.17832 48.003 5.27226 48.2848 5.74195L59.1818 21.9935C59.3696 22.4632 59.1818 23.0268 58.806 23.3086Z" fill="#BBD7A7"/>
</svg>
