<svg width="62" height="62" viewBox="0 0 62 62" fill="none" xmlns="http://www.w3.org/2000/svg">
<path d="M56.5687 21.1976C52.8786 18.6551 33.8598 6.09616 33.5194 5.82284C32.7731 5.32638 31.8967 5.06152 31.0003 5.06152C30.1039 5.06152 29.2275 5.32638 28.4812 5.82284L6.17046 20.6933C5.47735 21.0764 4.89914 21.6377 4.49558 22.3191C4.09203 23.0005 3.87779 23.7773 3.875 24.5692V52.4908C3.88429 53.6669 4.35564 54.7923 5.18732 55.6239C6.019 56.4556 7.14433 56.927 8.32047 56.9363H53.6795C54.6438 56.9367 55.581 56.6168 56.3438 56.027C56.8948 55.6163 57.3427 55.0829 57.6518 54.4691C57.961 53.8554 58.123 53.178 58.125 52.4908V24.5692C58.1269 23.9278 57.9887 23.2937 57.7198 22.7113C57.451 22.1288 57.0581 21.6122 56.5687 21.1976ZM36.5403 36.0051C41.9305 32.4124 52.907 25.0963 55.7611 23.1939C56.0368 23.5997 56.1853 24.0786 56.1875 24.5692V52.4908C56.1871 53.0048 56.0276 53.5061 55.7308 53.9258L36.5403 36.0051ZM29.5526 7.43731C29.9815 7.1519 30.4853 6.99968 31.0005 6.99976C31.5158 6.99985 32.0195 7.15224 32.4484 7.43778L54.1781 21.9208L34.4531 35.0741L32.4484 36.4038C32.0195 36.6897 31.5157 36.8423 31.0002 36.8423C30.4848 36.8423 29.9809 36.6897 29.5521 36.4038L7.82143 21.9208L29.5526 7.43731ZM6.26921 53.9258C5.97245 53.5061 5.81291 53.0048 5.8125 52.4908V24.5692C5.81663 24.079 5.96557 23.601 6.24058 23.1952C9.32085 25.2493 21.7956 33.5681 25.4553 36.0086C21.9671 39.2661 9.32782 51.0695 6.26921 53.9258ZM8.32047 54.9988C8.21124 54.995 8.10238 54.984 7.99461 54.9658C11.7651 51.4447 24.313 39.7268 27.1113 37.1135C29.9659 39.2752 31.9105 39.3999 34.8837 37.1091L54.0053 54.9658C53.6528 55.0699 8.68729 54.96 8.32047 54.9988Z" fill="#BBD7A7"/>
<path d="M34.8891 28.3752C34.8381 28.2586 34.7645 28.1532 34.6726 28.065C34.5808 27.9768 34.4724 27.9077 34.3538 27.8614C34.2351 27.8152 34.1085 27.7928 33.9813 27.7956C33.854 27.7984 33.7285 27.8263 33.6119 27.8776C32.6877 28.2717 31.6852 28.4481 30.6819 28.3931C29.6786 28.3381 28.7013 28.0532 27.8257 27.5604C26.95 27.0676 26.1994 26.3802 25.6317 25.5511C25.064 24.722 24.6945 23.7735 24.5517 22.7789C23.6911 14.2458 35.972 12.5773 37.4416 21.0127C37.5091 22.0316 37.785 23.8734 36.3498 23.9529C36.1879 23.9891 36.02 23.9893 35.858 23.9535C35.696 23.9177 35.5439 23.8468 35.4123 23.7459C35.2806 23.6449 35.1728 23.5162 35.0963 23.369C35.0198 23.2218 34.9765 23.0596 34.9695 22.8939V19.2782C34.9658 19.0825 34.903 18.8925 34.7894 18.7331C34.6757 18.5737 34.5166 18.4524 34.3328 18.3851C34.149 18.3178 33.9492 18.3075 33.7595 18.3558C33.5698 18.4041 33.3991 18.5085 33.2699 18.6555C32.5973 18.206 31.8089 17.9611 31 17.9503C29.9534 17.9597 28.9528 18.3821 28.216 19.1255C27.4792 19.8689 27.0658 20.8732 27.0658 21.9199C27.0658 22.9666 27.4792 23.9709 28.2159 24.7143C28.9527 25.4578 29.9533 25.8801 30.9999 25.8895C32.0174 25.8862 32.9955 25.4963 33.7362 24.7987C34.0529 25.1763 34.4555 25.4724 34.9102 25.6623C35.3649 25.8523 35.8585 25.9305 36.3497 25.8904C39.0982 25.8911 39.7415 22.9782 39.3619 20.7541C38.5121 13.9745 29.7811 11.0215 25.0315 15.9513C19.7247 21.1387 23.5816 30.4181 30.9933 30.3596C32.1224 30.292 35.4868 30.1168 34.8891 28.3752ZM31 23.952C30.4662 23.9442 29.9569 23.7267 29.5822 23.3465C29.2075 22.9662 28.9974 22.4538 28.9974 21.92C28.9974 21.3861 29.2074 20.8737 29.5821 20.4934C29.9568 20.1132 30.4661 19.8957 30.9999 19.8878C31.5337 19.8956 32.043 20.1132 32.4177 20.4934C32.7924 20.8736 33.0025 21.3861 33.0025 21.9199C33.0025 22.4538 32.7925 22.9662 32.4178 23.3464C32.043 23.7267 31.5338 23.9442 31 23.952Z" fill="#BBD7A7"/>
</svg>
