<svg width="57" height="59" viewBox="0 0 57 59" fill="none" xmlns="http://www.w3.org/2000/svg">
<path fill-rule="evenodd" clip-rule="evenodd" d="M48.7951 2.85938H23.0841C19.9182 2.85938 17.3241 5.45345 17.3241 8.61932V24.4996C17.3241 27.6655 19.9182 30.2596 23.0841 30.2596H40.722C41.0137 30.2596 41.2777 30.3792 41.4674 30.5719L47.5141 36.6185V31.3054C47.5141 30.7278 47.9824 30.2595 48.56 30.2595H48.7951C51.961 30.2595 54.555 27.6654 54.555 24.4995V8.61932C54.555 5.45345 51.961 2.85938 48.7951 2.85938ZM36.9856 20.8275V22.5925C36.9856 23.1701 36.5172 23.6384 35.9397 23.6384C35.3621 23.6384 34.8938 23.1701 34.8938 22.5925V19.8691C34.8938 19.2915 35.3621 18.8232 35.9397 18.8232C38.2235 18.8232 40.0748 16.9721 40.0748 14.6881C40.0748 12.4041 38.2237 10.553 35.9397 10.553C33.6558 10.553 31.8045 12.4041 31.8045 14.6881C31.8045 15.2657 31.3362 15.734 30.7586 15.734C30.1811 15.734 29.7127 15.2657 29.7127 14.6881C29.7127 11.2493 32.5009 8.46121 35.9397 8.46121C39.3784 8.46121 42.1666 11.2493 42.1666 14.6881C42.1666 17.748 39.9486 20.3262 36.9856 20.8275ZM34.8938 25.2454C34.8938 24.6678 35.3621 24.1995 35.9397 24.1995C36.5172 24.1995 36.9856 24.6678 36.9856 25.2454V25.3159C36.9856 25.8935 36.5172 26.3618 35.9397 26.3618C35.3621 26.3618 34.8938 25.8935 34.8938 25.3159V25.2454ZM32.5505 52.447C32.5505 53.0246 32.0821 53.4929 31.5046 53.4929C30.9104 53.4929 30.4587 53.0332 30.4587 52.3883C30.4587 51.8107 30.927 51.3424 31.5046 51.3424C32.0987 51.3424 32.5505 51.8021 32.5505 52.447ZM32.5505 49.0763C32.5505 49.6539 32.0821 50.1222 31.5046 50.1222C30.927 50.1222 30.4587 49.6539 30.4587 49.0763V43.9643C30.4587 43.3867 30.927 42.9184 31.5046 42.9184C32.0821 42.9184 32.5505 43.3867 32.5505 43.9643V49.0763ZM31.4576 38.181C28.7451 38.181 26.2842 39.2585 24.4794 41.0087H16.2782C15.9865 41.0087 15.7226 41.1283 15.5328 41.321L9.48618 47.3676V42.0545C9.48618 41.4769 9.01786 41.0086 8.44028 41.0086H8.20514C5.03927 41.0086 2.44519 38.4145 2.44519 35.2486V19.3685C2.44519 16.2025 5.03927 13.6085 8.20514 13.6085H15.2323V24.4996C15.2323 28.8202 18.7634 32.3514 23.0841 32.3514H39.6761V35.2488C39.6761 37.1661 38.73 38.912 37.1913 39.9818C35.5665 38.8469 33.5898 38.181 31.4576 38.181ZM38.8016 41.3823C42.4737 45.3327 42.3602 51.48 38.5462 55.2942C35.8715 57.9689 31.8853 58.9402 28.2308 57.6972C27.3005 57.3807 26.4303 56.9301 25.6432 56.3683H19.9662C19.0355 56.3683 18.5675 55.2367 19.2326 54.577L22.0745 51.7351C21.0004 48.8868 21.2879 45.6989 22.8284 43.1005H16.7112L9.17979 50.6321C8.51977 51.292 7.39451 50.8164 7.39451 49.8926L7.39438 43.0587C3.43363 42.6481 0.353394 39.278 0.353394 35.2488V19.3685C0.353394 15.0478 3.88447 11.5167 8.20514 11.5167H15.2323V8.61932C15.2323 4.29865 18.7634 0.767578 23.0841 0.767578H48.7951C53.1158 0.767578 56.6468 4.29865 56.6468 8.61932V24.4996C56.6468 28.5289 53.5665 31.8991 49.6059 32.3095V39.1434H49.6057C49.6057 40.0673 48.4805 40.5428 47.8204 39.8829L41.7679 33.8304V35.2488C41.7679 37.6647 40.6472 39.9067 38.8016 41.3823ZM37.0671 42.5961C33.9692 39.4983 28.9459 39.4983 25.848 42.5961C23.9629 44.4812 23.1171 47.2263 23.7094 49.9202C23.8293 50.4655 24.0049 50.9887 24.2294 51.4833C24.4431 51.8795 24.3828 52.3845 24.0482 52.7192L22.491 54.2764H25.9831V54.2796C26.2059 54.2794 26.4305 54.3503 26.6205 54.497C29.7604 56.9189 34.2446 56.6377 37.0671 53.8152C40.1651 50.7174 40.1651 45.6941 37.0671 42.5961Z" fill="#BBD7A7"/>
</svg>
