<svg width="150" height="24" viewBox="0 0 150 24" fill="none" xmlns="http://www.w3.org/2000/svg">
<path d="M16.4015 10.0303C16.4015 11.8968 16.0519 13.4955 15.3527 14.8263C14.659 16.1515 13.7117 17.1665 12.5106 17.8714C11.3151 18.5763 9.95888 18.9287 8.44197 18.9287C6.92506 18.9287 5.56604 18.5763 4.36492 17.8714C3.16944 17.1609 2.22208 16.143 1.52283 14.8178C0.829225 13.487 0.482422 11.8912 0.482422 10.0303C0.482422 8.16373 0.829225 6.56788 1.52283 5.24269C2.22208 3.91187 3.16944 2.89402 4.36492 2.18914C5.56604 1.48425 6.92506 1.13181 8.44197 1.13181C9.95888 1.13181 11.3151 1.48425 12.5106 2.18914C13.7117 2.89402 14.659 3.91187 15.3527 5.24269C16.0519 6.56788 16.4015 8.16373 16.4015 10.0303ZM13.2465 10.0303C13.2465 8.71636 13.0406 7.60828 12.629 6.70603C12.223 5.79814 11.6591 5.113 10.9373 4.65059C10.2155 4.18255 9.3837 3.94853 8.44197 3.94853C7.50025 3.94853 6.66848 4.18255 5.94668 4.65059C5.22488 5.113 4.65815 5.79814 4.2465 6.70603C3.84049 7.60828 3.63748 8.71636 3.63748 10.0303C3.63748 11.3442 3.84049 12.4551 4.2465 13.363C4.65815 14.2652 5.22488 14.9504 5.94668 15.4184C6.66848 15.8808 7.50025 16.112 8.44197 16.112C9.3837 16.112 10.2155 15.8808 10.9373 15.4184C11.6591 14.9504 12.223 14.2652 12.629 13.363C13.0406 12.4551 13.2465 11.3442 13.2465 10.0303Z" fill="#006C35"/>
<path d="M18.5185 18.6919V5.69946H21.4874V7.86486H21.6228C21.8596 7.11486 22.2656 6.53686 22.8408 6.13085C23.4216 5.71919 24.0842 5.51337 24.8286 5.51337C24.9977 5.51337 25.1867 5.52183 25.3953 5.53874C25.6096 5.55002 25.7872 5.56976 25.9282 5.59795V8.41467C25.7985 8.36956 25.5927 8.33008 25.3107 8.29625C25.0344 8.25678 24.7665 8.23704 24.5071 8.23704C23.9489 8.23704 23.447 8.35828 23.0015 8.60076C22.5617 8.8376 22.2149 9.16749 21.9611 9.59042C21.7073 10.0133 21.5805 10.5011 21.5805 11.0538V18.6919H18.5185Z" fill="#006C35"/>
<path d="M32.3632 23.8347C31.2636 23.8347 30.3191 23.6853 29.5296 23.3864C28.7401 23.0932 28.1057 22.6984 27.6264 22.2022C27.1471 21.706 26.8144 21.1562 26.6283 20.5528L29.3858 19.8845C29.5099 20.1383 29.6903 20.3892 29.9272 20.6374C30.164 20.8911 30.4826 21.0998 30.883 21.2633C31.289 21.4325 31.7993 21.5171 32.414 21.5171C33.2824 21.5171 34.0014 21.3056 34.5709 20.8827C35.1405 20.4654 35.4253 19.7774 35.4253 18.8188V16.3573H35.273C35.1151 16.6731 34.8839 16.9973 34.5794 17.33C34.2805 17.6627 33.883 17.9419 33.3867 18.1674C32.8961 18.393 32.2787 18.5058 31.5343 18.5058C30.5362 18.5058 29.6311 18.2718 28.8191 17.8037C28.0127 17.33 27.3699 16.6252 26.8905 15.6891C26.4168 14.7473 26.18 13.5688 26.18 12.1534C26.18 10.7267 26.4168 9.52275 26.8905 8.54155C27.3699 7.55471 28.0155 6.80754 28.8275 6.30002C29.6396 5.78686 30.5446 5.53029 31.5428 5.53029C32.304 5.53029 32.93 5.65998 33.4206 5.91938C33.9168 6.17314 34.3115 6.48047 34.6048 6.84137C34.898 7.19663 35.1208 7.53216 35.273 7.84794H35.4422V5.69946H38.4619V18.9033C38.4619 20.0142 38.1969 20.9334 37.6668 21.6608C37.1367 22.3883 36.4121 22.9325 35.4929 23.2934C34.5738 23.6543 33.5305 23.8347 32.3632 23.8347ZM32.3886 16.1035C33.0371 16.1035 33.5897 15.9457 34.0465 15.6299C34.5033 15.3141 34.8501 14.8601 35.0869 14.268C35.3238 13.6759 35.4422 12.9654 35.4422 12.1365C35.4422 11.3188 35.3238 10.6026 35.0869 9.98797C34.8557 9.37331 34.5117 8.89681 34.055 8.55847C33.6038 8.21448 33.0484 8.04249 32.3886 8.04249C31.7063 8.04249 31.1367 8.22012 30.68 8.57538C30.2232 8.93065 29.8792 9.41843 29.648 10.0387C29.4168 10.6534 29.3012 11.3526 29.3012 12.1365C29.3012 12.9316 29.4168 13.628 29.648 14.2257C29.8849 14.8178 30.2317 15.2802 30.6884 15.6129C31.1508 15.94 31.7176 16.1035 32.3886 16.1035Z" fill="#006C35"/>
<path d="M44.6242 18.9541C43.8009 18.9541 43.0593 18.8075 42.3996 18.5142C41.7454 18.2154 41.2266 17.7755 40.8432 17.1947C40.4654 16.6139 40.2764 15.8977 40.2764 15.0462C40.2764 14.3131 40.4118 13.7069 40.6825 13.2276C40.9531 12.7483 41.3225 12.3648 41.7905 12.0772C42.2586 11.7897 42.7858 11.5726 43.3723 11.4259C43.9644 11.2737 44.5762 11.1637 45.2078 11.096C45.9691 11.0171 46.5866 10.9466 47.0602 10.8846C47.5339 10.8169 47.8779 10.7154 48.0922 10.5801C48.3121 10.4391 48.4221 10.222 48.4221 9.92876V9.87801C48.4221 9.24079 48.2332 8.74738 47.8554 8.39775C47.4775 8.04813 46.9334 7.87332 46.2228 7.87332C45.4728 7.87332 44.8779 8.03685 44.4381 8.36392C44.0039 8.69098 43.7106 9.07726 43.5584 9.52275L40.6994 9.11673C40.9249 8.32726 41.2971 7.66749 41.8159 7.13742C42.3347 6.60171 42.9691 6.20134 43.7191 5.9363C44.4691 5.66562 45.298 5.53029 46.2059 5.53029C46.8319 5.53029 47.455 5.60359 48.0753 5.75021C48.6956 5.89683 49.2623 6.1393 49.7755 6.47765C50.2886 6.81035 50.7003 7.2643 51.0104 7.83949C51.3262 8.41467 51.4841 9.13365 51.4841 9.99643V18.6919H48.5405V16.9071H48.439C48.2529 17.268 47.9907 17.6064 47.6523 17.9221C47.3196 18.2323 46.8995 18.4832 46.392 18.675C45.8901 18.861 45.3009 18.9541 44.6242 18.9541ZM45.4193 16.7041C46.0339 16.7041 46.5668 16.5829 47.018 16.3404C47.4691 16.0923 47.8159 15.7652 48.0584 15.3592C48.3065 14.9532 48.4305 14.5105 48.4305 14.0312V12.5002C48.3347 12.5791 48.1711 12.6524 47.9399 12.7201C47.7144 12.7878 47.4606 12.847 47.1787 12.8977C46.8967 12.9485 46.6176 12.9936 46.3413 13.0331C46.0649 13.0725 45.8253 13.1064 45.6223 13.1346C45.1655 13.1966 44.7567 13.2981 44.3958 13.4391C44.0349 13.5801 43.7501 13.7774 43.5415 14.0312C43.3328 14.2793 43.2285 14.6007 43.2285 14.9955C43.2285 15.5594 43.4343 15.9851 43.846 16.2727C44.2576 16.5603 44.7821 16.7041 45.4193 16.7041Z" fill="#006C35"/>
<path d="M56.9105 11.0791V18.6919H53.8484V5.69946H56.7751V7.90715H56.9274C57.2263 7.17971 57.7028 6.60171 58.3569 6.17314C59.0167 5.74457 59.8315 5.53029 60.8014 5.53029C61.698 5.53029 62.479 5.72201 63.1445 6.10547C63.8155 6.48893 64.3343 7.04438 64.7008 7.77182C65.073 8.49926 65.2563 9.38177 65.2506 10.4194V18.6919H62.1886V10.893C62.1886 10.0246 61.9631 9.34512 61.5119 8.85452C61.0665 8.36392 60.449 8.11862 59.6595 8.11862C59.1238 8.11862 58.6473 8.23704 58.23 8.47388C57.8184 8.70508 57.4941 9.04061 57.2573 9.48046C57.0261 9.9203 56.9105 10.4532 56.9105 11.0791Z" fill="#006C35"/>
<path d="M67.6488 18.6919V5.69946H70.7108V18.6919H67.6488ZM69.1883 3.85548C68.7033 3.85548 68.286 3.69477 67.9364 3.37334C67.5868 3.04628 67.412 2.65436 67.412 2.1976C67.412 1.73519 67.5868 1.34328 67.9364 1.02185C68.286 0.694783 68.7033 0.53125 69.1883 0.53125C69.6789 0.53125 70.0962 0.694783 70.4402 1.02185C70.7898 1.34328 70.9646 1.73519 70.9646 2.1976C70.9646 2.65436 70.7898 3.04628 70.4402 3.37334C70.0962 3.69477 69.6789 3.85548 69.1883 3.85548Z" fill="#006C35"/>
<path d="M78.8122 18.9456C77.5153 18.9456 76.4016 18.6609 75.4711 18.0913C74.5463 17.5218 73.8329 16.7351 73.3311 15.7314C72.8348 14.722 72.5867 13.5603 72.5867 12.2464C72.5867 10.9269 72.8405 9.76241 73.348 8.75301C73.8555 7.73798 74.5717 6.94851 75.4965 6.3846C76.4269 5.81506 77.5265 5.53029 78.7953 5.53029C79.8498 5.53029 80.7831 5.72483 81.5951 6.11393C82.4128 6.49739 83.0641 7.04156 83.5491 7.74644C84.034 8.44569 84.3103 9.26335 84.378 10.1994H81.4513C81.3329 9.5735 81.051 9.05189 80.6055 8.63459C80.1656 8.21166 79.5763 8.0002 78.8376 8.0002C78.2117 8.0002 77.6619 8.16937 77.1882 8.50771C76.7145 8.84042 76.3452 9.31974 76.0801 9.94568C75.8207 10.5716 75.691 11.3216 75.691 12.1957C75.691 13.081 75.8207 13.8423 76.0801 14.4795C76.3395 15.1111 76.7032 15.5988 77.1713 15.9428C77.645 16.2812 78.2004 16.4503 78.8376 16.4503C79.2887 16.4503 79.6919 16.3658 80.0472 16.1966C80.4081 16.0218 80.7098 15.7708 80.9523 15.4438C81.1948 15.1167 81.3611 14.7192 81.4513 14.2511H84.378C84.3047 15.1703 84.034 15.9851 83.566 16.6956C83.0979 17.4005 82.4607 17.9532 81.6544 18.3535C80.848 18.7483 79.9006 18.9456 78.8122 18.9456Z" fill="#006C35"/>
<path d="M91.5068 1.36865H95.347L100.49 13.9212H100.693L105.836 1.36865H109.676V18.6919H106.665V6.79062H106.504L101.716 18.6411H99.4664L94.6788 6.76524H94.5181V18.6919H91.5068V1.36865Z" fill="#006C35"/>
<path d="M115.982 18.9541C115.159 18.9541 114.417 18.8075 113.757 18.5142C113.103 18.2154 112.584 17.7755 112.201 17.1947C111.823 16.6139 111.634 15.8977 111.634 15.0462C111.634 14.3131 111.77 13.7069 112.04 13.2276C112.311 12.7483 112.68 12.3648 113.148 12.0772C113.616 11.7897 114.144 11.5726 114.73 11.4259C115.322 11.2737 115.934 11.1637 116.566 11.096C117.327 11.0171 117.944 10.9466 118.418 10.8846C118.892 10.8169 119.236 10.7154 119.45 10.5801C119.67 10.4391 119.78 10.222 119.78 9.92876V9.87801C119.78 9.24079 119.591 8.74738 119.213 8.39775C118.835 8.04813 118.291 7.87332 117.581 7.87332C116.831 7.87332 116.236 8.03685 115.796 8.36392C115.362 8.69098 115.068 9.07726 114.916 9.52275L112.057 9.11673C112.283 8.32726 112.655 7.66749 113.174 7.13742C113.693 6.60171 114.327 6.20134 115.077 5.9363C115.827 5.66562 116.656 5.53029 117.564 5.53029C118.19 5.53029 118.813 5.60359 119.433 5.75021C120.053 5.89683 120.62 6.1393 121.133 6.47765C121.646 6.81035 122.058 7.2643 122.368 7.83949C122.684 8.41467 122.842 9.13365 122.842 9.99643V18.6919H119.898V16.9071H119.797C119.611 17.268 119.349 17.6064 119.01 17.9221C118.677 18.2323 118.257 18.4832 117.75 18.675C117.248 18.861 116.659 18.9541 115.982 18.9541ZM116.777 16.7041C117.392 16.7041 117.925 16.5829 118.376 16.3404C118.827 16.0923 119.174 15.7652 119.416 15.3592C119.664 14.9532 119.788 14.5105 119.788 14.0312V12.5002C119.693 12.5791 119.529 12.6524 119.298 12.7201C119.072 12.7878 118.818 12.847 118.536 12.8977C118.255 12.9485 117.975 12.9936 117.699 13.0331C117.423 13.0725 117.183 13.1064 116.98 13.1346C116.523 13.1966 116.115 13.2981 115.754 13.4391C115.393 13.5801 115.108 13.7774 114.899 14.0312C114.691 14.2793 114.586 14.6007 114.586 14.9955C114.586 15.5594 114.792 15.9851 115.204 16.2727C115.615 16.5603 116.14 16.7041 116.777 16.7041Z" fill="#006C35"/>
<path d="M125.206 23.564V5.69946H128.218V7.84794H128.395C128.553 7.53216 128.776 7.19663 129.063 6.84137C129.351 6.48047 129.74 6.17314 130.231 5.91938C130.721 5.65998 131.347 5.53029 132.109 5.53029C133.112 5.53029 134.017 5.78686 134.824 6.30002C135.636 6.80754 136.279 7.56035 136.752 8.55847C137.232 9.55094 137.471 10.769 137.471 12.2126C137.471 13.6393 137.237 14.8517 136.769 15.8498C136.301 16.8479 135.664 17.6092 134.858 18.1336C134.051 18.658 133.138 18.9203 132.117 18.9203C131.373 18.9203 130.755 18.7962 130.265 18.5481C129.774 18.3 129.379 18.0011 129.08 17.6515C128.787 17.2962 128.559 16.9607 128.395 16.6449H128.268V23.564H125.206ZM128.209 12.1957C128.209 13.0359 128.328 13.7718 128.564 14.4034C128.807 15.0349 129.154 15.5284 129.605 15.8836C130.062 16.2332 130.614 16.4081 131.263 16.4081C131.939 16.4081 132.506 16.2276 132.963 15.8667C133.42 15.5002 133.764 15.0011 133.995 14.3695C134.232 13.7323 134.35 13.0077 134.35 12.1957C134.35 11.3893 134.234 10.6731 134.003 10.0472C133.772 9.42124 133.428 8.93065 132.971 8.57538C132.515 8.22012 131.945 8.04249 131.263 8.04249C130.609 8.04249 130.053 8.21448 129.596 8.55847C129.14 8.90245 128.793 9.38459 128.556 10.0049C128.325 10.6252 128.209 11.3554 128.209 12.1957Z" fill="#006C35"/>
<path d="M149.648 9.13365L146.856 9.43816C146.777 9.15621 146.639 8.89117 146.442 8.64305C146.25 8.39493 145.991 8.19475 145.664 8.04249C145.337 7.89024 144.936 7.81411 144.462 7.81411C143.825 7.81411 143.29 7.95227 142.855 8.22858C142.427 8.5049 142.215 8.86298 142.221 9.30282C142.215 9.68064 142.353 9.98797 142.635 10.2248C142.923 10.4617 143.397 10.6562 144.056 10.8085L146.273 11.2821C147.502 11.5472 148.415 11.9673 149.013 12.5425C149.617 13.1177 149.921 13.8705 149.927 14.8009C149.921 15.6186 149.681 16.3404 149.208 16.9663C148.74 17.5866 148.088 18.0716 147.254 18.4212C146.419 18.7708 145.461 18.9456 144.378 18.9456C142.788 18.9456 141.508 18.6129 140.538 17.9475C139.568 17.2765 138.99 16.3432 138.804 15.1477L141.79 14.8601C141.925 15.4466 142.212 15.8893 142.652 16.1881C143.092 16.487 143.665 16.6364 144.369 16.6364C145.097 16.6364 145.68 16.487 146.12 16.1881C146.566 15.8893 146.789 15.5199 146.789 15.0801C146.789 14.7079 146.645 14.4005 146.357 14.1581C146.075 13.9156 145.635 13.7295 145.038 13.5998L142.821 13.1346C141.575 12.8752 140.653 12.4381 140.056 11.8235C139.458 11.2032 139.162 10.4194 139.167 9.472C139.162 8.67125 139.379 7.97764 139.819 7.39118C140.264 6.79908 140.882 6.34231 141.671 6.02088C142.466 5.69382 143.383 5.53029 144.42 5.53029C145.943 5.53029 147.141 5.85453 148.015 6.50303C148.895 7.15152 149.439 8.02839 149.648 9.13365Z" fill="#006C35"/>
</svg>
