<svg width="39" height="40" viewBox="0 0 39 40" fill="none" xmlns="http://www.w3.org/2000/svg">
<path fill-rule="evenodd" clip-rule="evenodd" d="M35.0932 16.1306C35.0932 26.587 22.2411 37.8284 19.8138 39.8582C19.5856 40.049 19.2572 40.0469 19.0309 39.8539C17.4868 38.5365 11.6912 33.3967 7.69826 27.1975C3.69453 28.4611 0.862033 28.6386 0.163958 27.4295C-1.00695 25.4014 4.20305 20.1232 12.2937 14.8227C18.228 16.7694 21.8732 12.4306 24.404 9.4182C25.1616 8.51648 25.8193 7.73361 26.4087 7.27373C26.6361 7.09635 26.6405 6.65146 26.3776 6.53293C18.6982 3.07025 11.707 5.35142 10.9532 11.6612C10.9223 11.9196 11.2085 12.0849 11.4278 11.9449C14.3796 10.0609 17.767 8.67082 20.321 8.0152C20.6817 7.92261 20.7646 8.28422 20.418 8.4203C18.0014 9.36899 15.5816 10.6732 13.4147 12.0212C13.4026 12.0209 13.3903 12.0238 13.3793 12.0303C9.6141 14.2702 6.39246 16.5966 4.00876 18.7314C3.83995 17.8599 3.74857 16.9908 3.74857 16.1306C3.74857 7.22192 10.7653 0 19.4209 0C24.0851 0 28.2734 2.09709 31.1444 5.42515C35.1477 4.16176 37.9799 3.98442 38.6779 5.19344C39.6158 6.81802 36.4593 10.5281 31.0074 14.6646C29.696 15.7026 28.1396 16.803 26.397 17.9151C20.5515 16.0902 16.9467 20.381 14.4373 23.3678C13.6797 24.2695 13.022 25.0524 12.4326 25.5123C12.2053 25.6897 12.2008 26.1346 12.4637 26.2531C20.1432 29.7158 27.1343 27.4346 27.8882 21.1249C27.919 20.8664 27.6329 20.7011 27.4135 20.8411C24.4618 22.7252 21.0743 24.1152 18.5203 24.7708C18.1596 24.8634 18.0767 24.5018 18.4234 24.3657C20.8431 23.4158 23.2661 22.1093 25.4352 20.7595C25.4446 20.7586 25.4539 20.7557 25.4623 20.7507C29.2898 18.4737 32.5556 16.1075 34.9504 13.9439C35.0446 14.659 35.0932 15.3889 35.0932 16.1306ZM33.887 9.91405C35.1507 8.61626 35.7321 7.61091 35.4216 7.07311C35.118 6.54731 34.0011 6.5363 32.3106 6.95241C32.9315 7.87438 33.4615 8.86618 33.887 9.91405ZM5.175 22.486C3.75963 23.891 3.09251 24.9808 3.42051 25.5489C3.73615 26.0956 4.931 26.0858 6.73576 25.618C6.14681 24.5917 5.61807 23.5438 5.175 22.486Z" fill="#006C35"/>
</svg>
