<svg width="32" height="32" viewBox="0 0 32 32" fill="none" xmlns="http://www.w3.org/2000/svg">
<path d="M28.7106 9.48298C28.7309 9.76723 28.7309 10.0515 28.7309 10.3358C28.7309 19.0058 22.132 28.9957 10.0711 28.9957C6.35531 28.9957 2.90356 27.9195 0 26.0515C0.527937 26.1124 1.0355 26.1327 1.58375 26.1327C4.64969 26.1327 7.47206 25.0972 9.72587 23.3307C6.84262 23.2698 4.42637 21.3815 3.59387 18.7825C4 18.8434 4.40606 18.884 4.8325 18.884C5.42131 18.884 6.01019 18.8027 6.55837 18.6607C3.55331 18.0515 1.29944 15.4119 1.29944 12.2241V12.1429C2.1725 12.6302 3.18781 12.9348 4.26388 12.9754C2.49738 11.7977 1.34006 9.78755 1.34006 7.51342C1.34006 6.29517 1.66488 5.17842 2.23344 4.2038C5.46187 8.18348 10.3147 10.7824 15.7563 11.0667C15.6548 10.5794 15.5938 10.0719 15.5938 9.56423C15.5938 5.94998 18.5177 3.00586 22.1522 3.00586C24.0405 3.00586 25.7461 3.79773 26.9441 5.07692C28.4263 4.79267 29.8476 4.24442 31.1065 3.49317C30.6191 5.01605 29.5836 6.29523 28.2232 7.10736C29.5431 6.9653 30.8222 6.59973 31.9999 6.09217C31.1066 7.39161 29.9898 8.54892 28.7106 9.48298V9.48298Z" fill="white"/>
</svg>
