<svg width="36" height="32" viewBox="0 0 36 32" fill="none" xmlns="http://www.w3.org/2000/svg">
<path d="M34.3534 7.75519C33.9608 6.27706 32.8042 5.11294 31.3356 4.71788C28.6737 4 17.9999 4 17.9999 4C17.9999 4 7.32616 4 4.66423 4.71788C3.19567 5.113 2.03904 6.27706 1.64648 7.75519C0.933228 10.4344 0.933228 16.0243 0.933228 16.0243C0.933228 16.0243 0.933228 21.6141 1.64648 24.2933C2.03904 25.7714 3.19567 26.8871 4.66423 27.2821C7.32616 28 17.9999 28 17.9999 28C17.9999 28 28.6737 28 31.3356 27.2821C32.8042 26.8871 33.9608 25.7714 34.3534 24.2933C35.0666 21.6141 35.0666 16.0243 35.0666 16.0243C35.0666 16.0243 35.0666 10.4344 34.3534 7.75519V7.75519ZM14.509 21.0994V10.9491L23.4302 16.0244L14.509 21.0994V21.0994Z" fill="white"/>
</svg>
