<svg width="31" height="25" viewBox="0 0 31 25" fill="none" xmlns="http://www.w3.org/2000/svg">
<path d="M27.1187 6.43749C27.1374 6.69998 27.1374 6.96252 27.1374 7.22501C27.1374 15.2312 21.0437 24.4563 9.90619 24.4563C6.47493 24.4563 3.28745 23.4625 0.606184 21.7375C1.0937 21.7938 1.5624 21.8125 2.06868 21.8125C4.89989 21.8125 7.50618 20.8563 9.58743 19.225C6.92493 19.1688 4.69367 17.425 3.92491 15.025C4.29994 15.0812 4.67491 15.1187 5.0687 15.1187C5.61243 15.1187 6.15622 15.0437 6.66244 14.9125C3.88745 14.35 1.80613 11.9125 1.80613 8.96875V8.89378C2.61235 9.34378 3.54993 9.62502 4.54361 9.66248C2.91236 8.57496 1.84365 6.71873 1.84365 4.61872C1.84365 3.49374 2.14359 2.46249 2.66863 1.56248C5.64989 5.23748 10.1312 7.63744 15.1561 7.89998C15.0624 7.44998 15.0061 6.98128 15.0061 6.51252C15.0061 3.17498 17.7061 0.45626 21.0624 0.45626C22.8061 0.45626 24.3811 1.18751 25.4874 2.36876C26.8561 2.10627 28.1686 1.6 29.3311 0.906263C28.8811 2.31254 27.9248 3.4938 26.6686 4.24374C27.8874 4.11256 29.0686 3.77498 30.1561 3.30628C29.3312 4.50623 28.2999 5.57494 27.1187 6.43749Z" fill="#565656"/>
</svg>
