<svg width="33" height="33" viewBox="0 0 33 33" fill="none" xmlns="http://www.w3.org/2000/svg">
<g clip-path="url(#clip0_1419_33583)">
<path d="M32.7133 24.0076L29.3308 22.3163L27.1781 16.7166C27.1527 16.6504 27.114 16.5902 27.0643 16.5396C27.0146 16.489 26.9551 16.4492 26.8893 16.4227L13.532 11.0834C13.4387 11.0463 13.3364 11.0372 13.2379 11.0573C13.1395 11.0775 13.049 11.126 12.9777 11.1969L11.1963 12.9784C11.1263 13.0497 11.0786 13.1398 11.0589 13.2378C11.0393 13.3357 11.0484 13.4373 11.0854 13.5301L16.4247 26.8874C16.4512 26.9531 16.491 27.0127 16.5416 27.0624C16.5921 27.112 16.6524 27.1508 16.7186 27.1761L22.3183 29.3288L24.0095 32.7113C24.0452 32.7859 24.0982 32.8508 24.1641 32.9006C24.2301 32.9505 24.307 32.9837 24.3885 32.9975C24.416 33.0001 24.4436 33.0001 24.471 32.9975C24.6076 32.9969 24.7383 32.9422 24.8345 32.8454L32.8474 24.8326C32.9063 24.7757 32.9509 24.7055 32.9773 24.628C33.0038 24.5504 33.0114 24.4676 32.9995 24.3866C32.9856 24.3051 32.9524 24.2281 32.9026 24.1622C32.8528 24.0962 32.7879 24.0432 32.7133 24.0076ZM12.1656 13.4631L12.4518 13.1795L19.1008 19.8284C18.6626 20.4494 18.4734 21.2121 18.5705 21.9658C18.6676 22.7196 19.044 23.4094 19.6253 23.899C20.2065 24.3886 20.9503 24.6422 21.7096 24.6098C22.4689 24.5773 23.1883 24.2611 23.7257 23.7238C24.2631 23.1864 24.5793 22.4669 24.6117 21.7076C24.6442 20.9484 24.3905 20.2046 23.901 19.6233C23.4114 19.042 22.7215 18.6656 21.9678 18.5685C21.2141 18.4714 20.4513 18.6606 19.8304 19.0988L13.1814 12.4498L13.465 12.1637L26.2963 17.2967L28.3202 22.5613L22.5632 28.3182L17.2987 26.2944L12.1656 13.4631ZM21.5784 19.5732C22.0418 19.5739 22.4906 19.7352 22.8484 20.0297C23.2062 20.3242 23.4509 20.7337 23.5406 21.1883C23.6304 21.6429 23.5598 22.1146 23.3408 22.5231C23.1218 22.9315 22.768 23.2513 22.3396 23.4281C21.9113 23.6049 21.4349 23.6277 20.9916 23.4926C20.5483 23.3576 20.1655 23.073 19.9085 22.6874C19.6515 22.3018 19.5361 21.839 19.5821 21.3779C19.628 20.9167 19.8324 20.4858 20.1604 20.1584C20.5368 19.7832 21.0468 19.5727 21.5784 19.5732ZM24.6128 31.6105L23.3238 29.0323L29.0292 23.327L31.6073 24.616L24.6128 31.6105Z" fill="white"/>
<path d="M9.86114 27.5861C9.76254 27.4929 9.63201 27.441 9.49634 27.441C9.36067 27.441 9.23013 27.4929 9.13153 27.5861L8.47669 28.241C6.72918 25.8692 5.76514 23.0114 5.71893 20.0657C5.67272 17.1201 6.54663 14.2334 8.21888 11.808C8.71988 12.0837 9.29674 12.1896 9.86299 12.1098C10.4292 12.0301 10.9544 11.769 11.3598 11.3656C11.7652 10.9623 12.0289 10.4384 12.1115 9.87259C12.1941 9.30675 12.0911 8.72937 11.8179 8.22698C14.2433 6.55474 17.13 5.68082 20.0757 5.72704C23.0213 5.77325 25.8792 6.73729 28.2509 8.4848L27.5858 9.13191C27.4899 9.22858 27.4361 9.35926 27.4362 9.49542C27.4358 9.56328 27.4488 9.63055 27.4745 9.69337C27.5002 9.7562 27.538 9.81334 27.5858 9.86152L29.8597 12.1174C29.9563 12.2134 30.087 12.2673 30.2232 12.2673C30.3594 12.2673 30.4901 12.2134 30.5867 12.1174L32.8477 9.85636C32.8956 9.80847 32.9337 9.7516 32.9596 9.68901C32.9856 9.62641 32.9989 9.55931 32.9989 9.49155C32.9989 9.42379 32.9856 9.3567 32.9596 9.2941C32.9337 9.2315 32.8956 9.17464 32.8477 9.12675L30.5867 6.86573C30.4901 6.7697 30.3594 6.71579 30.2232 6.71579C30.087 6.71579 29.9563 6.7697 29.8597 6.86573L28.9857 7.73456C26.8317 6.11369 24.2851 5.09533 21.6073 4.78406C18.9296 4.47279 16.2173 4.87984 13.749 5.96339L16.7215 2.99855C17.0586 3.1596 17.4418 3.19605 17.8032 3.10144C18.1645 3.00684 18.4807 2.78728 18.6956 2.48174C18.9105 2.17619 19.0102 1.8044 18.977 1.43232C18.9439 1.06025 18.78 0.711942 18.5145 0.449199C18.249 0.186456 17.8989 0.0262616 17.5265 -0.0029655C17.1541 -0.0321926 16.7834 0.0714373 16.4802 0.28954C16.1769 0.507642 15.9607 0.826117 15.8699 1.18846C15.7791 1.55081 15.8196 1.93361 15.9842 2.26894L10.9672 7.2937C10.4578 6.952 9.84553 6.79776 9.23504 6.85733C8.62455 6.9169 8.05368 7.18659 7.61995 7.62032C7.18621 8.05405 6.91653 8.62492 6.85696 9.23541C6.79739 9.8459 6.95163 10.4581 7.29333 10.9675L2.26857 15.9846C1.93192 15.8205 1.54802 15.7811 1.18508 15.8734C0.822148 15.9657 0.50368 16.1837 0.286271 16.4886C0.0688624 16.7935 -0.033406 17.1656 -0.00236147 17.5388C0.0286831 17.912 0.19103 18.2621 0.455831 18.5269C0.720631 18.7917 1.07074 18.9541 1.44393 18.9851C1.81713 19.0161 2.18924 18.9139 2.49416 18.6965C2.79907 18.4791 3.01703 18.1606 3.10931 17.7977C3.20159 17.4347 3.16221 17.0508 2.99817 16.7142L5.97075 13.7493C4.88612 16.217 4.47779 18.929 4.78769 21.6067C5.0976 24.2843 6.11457 26.8313 7.73419 28.986L6.86278 29.86C6.76675 29.9566 6.71284 30.0873 6.71284 30.2235C6.71284 30.3598 6.76675 30.4905 6.86278 30.5871L9.1238 32.8481C9.22005 32.9449 9.35078 32.9996 9.48732 33.0002C9.55536 33.0002 9.62273 32.9868 9.68556 32.9607C9.7484 32.9346 9.80544 32.8963 9.85341 32.8481L12.117 30.5871C12.213 30.4905 12.2669 30.3598 12.2669 30.2235C12.2669 30.0873 12.213 29.9566 12.117 29.86L9.86114 27.5861ZM30.2283 7.9537L31.7597 9.48511L30.2283 11.0165L28.6969 9.48511L30.2283 7.9537ZM17.0154 1.19386C17.0921 1.11661 17.1899 1.06387 17.2965 1.04232C17.4032 1.02077 17.5138 1.03138 17.6144 1.07281C17.715 1.11424 17.8011 1.18463 17.8616 1.27503C17.9221 1.36543 17.9545 1.47178 17.9545 1.58058C17.9545 1.68938 17.9221 1.79573 17.8616 1.88613C17.8011 1.97653 17.715 2.04691 17.6144 2.08834C17.5138 2.12978 17.4032 2.14039 17.2965 2.11884C17.1899 2.09729 17.0921 2.04454 17.0154 1.9673C16.9646 1.91654 16.9243 1.85625 16.8968 1.7899C16.8693 1.72354 16.8551 1.65241 16.8551 1.58058C16.8551 1.50875 16.8693 1.43762 16.8968 1.37126C16.9243 1.3049 16.9646 1.24462 17.0154 1.19386ZM8.35294 8.35331C8.50267 8.20287 8.68064 8.08349 8.87664 8.00203C9.07264 7.92057 9.2828 7.87863 9.49505 7.87863C9.7073 7.87863 9.91746 7.92057 10.1135 8.00203C10.3095 8.08349 10.4874 8.20287 10.6372 8.35331C10.8635 8.57928 11.0177 8.8673 11.0803 9.18094C11.1429 9.49458 11.111 9.81973 10.9887 10.1153C10.8665 10.4108 10.6593 10.6634 10.3934 10.8411C10.1275 11.0189 9.81487 11.1137 9.49505 11.1137C9.17523 11.1137 8.86259 11.0189 8.59671 10.8411C8.33082 10.6634 8.12364 10.4108 8.00136 10.1153C7.87909 9.81973 7.84723 9.49458 7.90982 9.18094C7.9724 8.8673 8.12661 8.57928 8.35294 8.35331ZM1.9695 17.7892C1.86424 17.877 1.72994 17.9223 1.59302 17.9161C1.45609 17.9099 1.32642 17.8527 1.2295 17.7558C1.13258 17.6589 1.07541 17.5292 1.06922 17.3923C1.06304 17.2554 1.10828 17.1211 1.19607 17.0158C1.29924 16.9144 1.43812 16.8576 1.58278 16.8576C1.72745 16.8576 1.86633 16.9144 1.9695 17.0158C2.02033 17.0666 2.06065 17.1269 2.08816 17.1932C2.11567 17.2596 2.12983 17.3307 2.12983 17.4025C2.12983 17.4744 2.11567 17.5455 2.08816 17.6118C2.06065 17.6782 2.02033 17.7385 1.9695 17.7892ZM9.49505 31.7446L7.96364 30.2132L9.49505 28.6818L11.0265 30.2132L9.49505 31.7446Z" fill="white"/>
</g>
<defs>
<clipPath id="clip0_1419_33583">
<rect width="33" height="33" fill="white"/>
</clipPath>
</defs>
</svg>
