<svg width="33" height="33" viewBox="0 0 33 33" fill="none" xmlns="http://www.w3.org/2000/svg">
<path d="M4.52237 28.7429C4.1404 28.7408 3.77074 28.6075 3.47536 28.3653C3.17998 28.1231 2.97683 27.7867 2.89997 27.4126L1.02377 18.52C0.979055 18.308 0.976568 18.0893 1.01646 17.8763C1.05635 17.6633 1.13783 17.4603 1.25625 17.2789C1.37466 17.0974 1.52769 16.9411 1.70657 16.8188C1.88546 16.6965 2.08669 16.6107 2.29876 16.5663L4.93779 15.9913C5.3395 15.9082 5.7577 15.9756 6.11303 16.1806C6.46835 16.3855 6.73606 16.7138 6.86534 17.1031L10.1902 16.4163C10.8848 16.2669 11.6021 16.2565 12.3007 16.3856C12.9993 16.5147 13.6655 16.7808 14.2608 17.1686C14.9734 17.6282 15.8027 17.8742 16.6506 17.8775C16.9628 17.8736 17.274 17.8409 17.5802 17.7799L20.2575 17.227C20.7214 17.1213 21.2074 17.1753 21.6368 17.3801C22.0662 17.585 22.4139 17.9288 22.6236 18.3559L29.2784 16.3639C29.5949 16.2734 29.928 16.2569 30.2518 16.3159C30.5756 16.3748 30.8816 16.5075 31.1458 16.7038C31.4101 16.9 31.6256 17.1545 31.7757 17.4475C31.9257 17.7405 32.0063 18.0641 32.0111 18.3932C32.012 18.7102 31.9402 19.0231 31.801 19.3079C31.6619 19.5927 31.4591 19.8417 31.2085 20.0357C28.6309 22.2009 22.1428 27.3944 18.486 28.1749C16.1148 28.6354 13.6571 28.1963 11.5921 26.9433C10.7505 26.4724 9.78232 26.2776 8.82412 26.3864C8.8528 26.7913 8.73446 27.1929 8.49081 27.5176C8.24717 27.8423 7.89458 28.0681 7.4978 28.1537C7.31283 28.1807 4.62609 28.7899 4.52237 28.7429ZM5.27768 16.9872C5.23543 16.9873 5.19328 16.9913 5.1518 16.9993L2.51273 17.5744C2.43255 17.5903 2.35635 17.6221 2.28863 17.6679C2.22091 17.7137 2.16302 17.7726 2.11836 17.8411C2.07371 17.9096 2.04319 17.9863 2.02859 18.0667C2.01399 18.1472 2.01562 18.2297 2.03337 18.3096L3.90956 27.201C3.94166 27.3642 4.0369 27.5082 4.17458 27.6015C4.31225 27.6949 4.48122 27.7301 4.64473 27.6995L7.28782 27.1446C7.39471 27.1133 7.49292 27.0577 7.5748 26.9822C7.65668 26.9067 7.72002 26.8134 7.75988 26.7094C7.79974 26.6054 7.81504 26.4935 7.8046 26.3827C7.79416 26.2718 7.75826 26.1648 7.69969 26.0701L5.97206 17.816C5.93761 17.4189 5.73262 16.9771 5.27768 16.9872ZM9.33924 25.3258C10.307 25.3264 11.2584 25.575 12.1027 26.0479C13.9486 27.1752 16.1485 27.5738 18.2725 27.1658C21.7974 26.4135 28.5901 20.8887 30.5881 19.2139C30.7735 19.0516 30.8982 18.8311 30.9418 18.5886C30.9854 18.3461 30.9452 18.0959 30.828 17.8792C30.7107 17.6625 30.5233 17.4921 30.2965 17.3959C30.0696 17.2997 29.8169 17.2834 29.5796 17.3498L22.8382 19.368C22.8178 19.9282 22.6125 20.4659 22.2543 20.8972C21.8961 21.3284 21.4052 21.6289 20.8582 21.7517L16.8929 22.6289C16.8267 22.6438 16.7581 22.6454 16.6913 22.6338C16.6244 22.6221 16.5605 22.5974 16.5032 22.561C16.4459 22.5246 16.3964 22.4772 16.3574 22.4216C16.3185 22.366 16.2909 22.3033 16.2762 22.237C16.2616 22.1707 16.2602 22.1022 16.2721 22.0354C16.284 21.9686 16.3089 21.9048 16.3455 21.8476C16.3822 21.7904 16.4297 21.7411 16.4854 21.7023C16.5411 21.6636 16.604 21.6362 16.6703 21.6218L20.6357 20.7446C21.0018 20.6626 21.3238 20.4463 21.5384 20.1386C21.7529 19.8308 21.8444 19.4538 21.7948 19.0819C21.7644 18.9388 21.7058 18.8032 21.6224 18.6829C21.5391 18.5627 21.4326 18.4602 21.3093 18.3815C21.1859 18.3028 21.0482 18.2494 20.904 18.2244C20.7598 18.1994 20.6121 18.2034 20.4695 18.236L17.7786 18.7909C16.374 19.0876 14.9092 18.8165 13.7039 18.0366C13.2215 17.7223 12.6818 17.5064 12.1157 17.4014C11.5496 17.2963 10.9683 17.3041 10.4052 17.4243L7.08741 18.1101L7.34316 19.3297L8.62669 25.3711C8.86301 25.341 9.101 25.3258 9.33924 25.3258ZM18.9851 15.828C18.9173 15.8281 18.8503 15.8148 18.7877 15.7889C18.7251 15.763 18.6683 15.7249 18.6205 15.677L14.0725 11.1301C9.94522 7.02905 14.6453 1.83428 18.9846 5.51261C22.9937 2.0672 27.61 6.32197 24.4419 10.5027C24.7804 10.9402 24.9335 11.4931 24.8682 12.0424C24.803 12.5917 24.5246 13.0933 24.093 13.4393L22.0617 15.4716C21.4918 15.9857 20.9757 15.0307 20.4478 14.5874C20.137 14.8389 19.289 15.9056 18.9851 15.828ZM15.9356 5.28601C13.4419 5.4383 12.5235 8.09513 14.8016 10.4009L18.9866 14.5844L19.7188 13.8583L19.3008 13.4393C17.2773 11.4622 19.4736 8.76977 21.6967 10.3627C21.9536 10.1534 22.256 10.0072 22.5797 9.93604C22.9034 9.86486 23.2392 9.8706 23.5603 9.95282C26.1892 6.56596 22.464 3.45234 19.3497 6.5821C19.2512 6.67524 19.1207 6.72713 18.9851 6.72713C18.8495 6.72713 18.7191 6.67524 18.6205 6.5821C18.2805 6.19974 17.8683 5.88838 17.4075 5.66594C16.9467 5.44351 16.4465 5.31439 15.9356 5.28601ZM19.5314 11.7112C19.4323 12.4384 21.228 13.8133 21.6971 14.3779C22.3346 13.6335 24.0499 12.4056 23.8523 11.5884C23.6442 10.7803 22.8401 10.6566 22.0617 11.4081C21.9632 11.5012 21.8327 11.5531 21.6971 11.5531C21.5615 11.5531 21.4311 11.5012 21.3326 11.4081C20.5067 10.5908 19.6066 10.8235 19.5314 11.7112Z" fill="white"/>
</svg>
