<svg width="33" height="33" viewBox="0 0 33 33" fill="none" xmlns="http://www.w3.org/2000/svg">
<path d="M31.2861 20.6168C30.9959 20.1321 29.8056 18.6926 26.675 20.5158L21.1964 23.7068C20.946 23.8526 20.6917 23.959 20.4276 24.027C20.5197 23.8668 20.5928 23.6887 20.645 23.4941C20.9291 22.4336 20.2993 21.3266 19.2111 20.9739C19.189 20.9667 19.1665 20.9611 19.1437 20.9569C17.5715 20.6734 16.0188 20.112 14.7711 19.661C14.3371 19.504 13.927 19.3559 13.5781 19.2427C12.1644 18.784 10.8893 19.3502 9.82826 19.9645L5.77809 22.3095L5.40845 21.6564C5.04931 21.022 4.24107 20.7979 3.60647 21.1569L2.06926 22.0269C1.76266 22.2004 1.54178 22.4838 1.44729 22.8247C1.3528 23.1657 1.3963 23.5223 1.56981 23.8289L6.08901 31.8141C6.332 32.2434 6.78059 32.4848 7.24201 32.4848C7.46244 32.4848 7.68583 32.4297 7.89099 32.3136L9.4282 31.4436C10.0627 31.0845 10.2868 30.2761 9.92764 29.6416L9.47608 28.8437L10.3693 28.3281L17.3745 30.2051C17.7642 30.3095 18.1519 30.3614 18.5333 30.3614C19.3045 30.3614 20.0496 30.1491 20.7307 29.7298L30.673 23.6078C31.5924 23.0416 31.8846 21.616 31.2861 20.6168ZM8.9203 30.546L7.3831 31.416C7.24581 31.4939 7.06418 31.4433 6.98652 31.306L2.46732 23.3208C2.42949 23.254 2.42021 23.1756 2.44115 23.1001C2.46204 23.0245 2.51038 22.9621 2.57728 22.9242L4.11449 22.0542C4.15838 22.0294 4.20685 22.0176 4.25493 22.0176C4.35728 22.0176 4.45821 22.0708 4.51113 22.1641L9.03033 30.1493C9.10793 30.2867 9.05759 30.4683 8.9203 30.546ZM30.1323 22.7295L20.1901 28.8515C19.4088 29.3325 18.5513 29.4528 17.6415 29.2088L10.4299 27.2765C10.2979 27.2411 10.1571 27.2596 10.0387 27.328L8.96819 27.946L6.28611 23.207L10.3451 20.8569C11.2529 20.3312 12.2344 19.8908 13.2601 20.2235C13.5926 20.3314 13.9763 20.4701 14.4206 20.6307C15.695 21.0914 17.2789 21.664 18.9232 21.9649C19.4797 22.1605 19.7908 22.6977 19.6489 23.2271C19.4624 23.9234 18.8806 24.0105 18.4169 23.9576C17.6114 23.7919 16.8454 23.5733 16.035 23.3419C15.65 23.2319 15.252 23.1183 14.8426 23.0086C14.5677 22.9351 14.2849 23.0982 14.2111 23.3732C14.1374 23.6483 14.3007 23.931 14.5757 24.0047C14.9769 24.1122 15.3708 24.2247 15.7518 24.3335C16.5884 24.5725 17.3787 24.7981 18.2303 24.9722C18.2337 24.9729 18.2473 24.9755 18.2508 24.976L18.9321 25.0868C19.9583 25.2509 20.8685 25.091 21.7154 24.5978L27.1941 21.4068C28.7554 20.4974 29.9545 20.4003 30.4015 21.1466C30.7086 21.6595 30.5728 22.4583 30.1323 22.7295ZM4.54594 23.5709C4.58976 23.8708 4.38216 24.1495 4.08226 24.1933C3.78236 24.2371 3.50366 24.0296 3.45984 23.7296C3.41601 23.4297 3.62355 23.151 3.92351 23.1072C4.22341 23.0634 4.50211 23.271 4.54594 23.5709ZM10.8482 12.2497L12.1666 12.7571C12.358 13.461 12.6378 14.1359 13.0009 14.7699L12.4272 16.0617C12.3406 16.2566 12.383 16.4847 12.5338 16.6355L14.3438 18.4456C14.4947 18.5964 14.7227 18.6388 14.9177 18.5523L16.2101 17.9783C16.844 18.3414 17.5187 18.6212 18.2222 18.8125L18.7297 20.1312C18.8063 20.3303 18.9976 20.4615 19.211 20.4615H21.7707C21.9841 20.4615 22.1753 20.3302 22.2519 20.1312L22.7594 18.8128C23.4632 18.6214 24.1381 18.3417 24.7721 17.9784L26.0639 18.5522C26.259 18.6388 26.4869 18.5964 26.6378 18.4456L28.4479 16.6355C28.5987 16.4847 28.641 16.2566 28.5545 16.0616L27.9805 14.7693C28.3437 14.1353 28.6234 13.4606 28.8147 12.7573L30.1334 12.2497C30.3324 12.1731 30.4638 11.9818 30.4638 11.7685V9.20868C30.4638 8.99534 30.3324 8.8041 30.1334 8.72747L28.8151 8.22003C28.6237 7.5162 28.3439 6.84131 27.9807 6.20729L28.5545 4.91552C28.641 4.72055 28.5987 4.49245 28.4478 4.34163L26.6377 2.53159C26.4869 2.38077 26.2588 2.33829 26.0639 2.42498L24.7716 2.99894C24.1376 2.63581 23.4629 2.35608 22.7595 2.16472L22.2519 0.846076C22.1753 0.64698 21.9841 0.515625 21.7707 0.515625H19.211C18.9976 0.515625 18.8064 0.64698 18.7297 0.846012L18.2221 2.16466C17.5187 2.35602 16.844 2.63575 16.21 2.99887L14.9177 2.42492C14.7227 2.33823 14.4947 2.38071 14.3438 2.53153L12.5338 4.34156C12.383 4.49238 12.3406 4.72048 12.4272 4.91545L13.001 6.20761C12.6378 6.84151 12.3581 7.51633 12.1667 8.2199L10.8482 8.72747C10.6492 8.80404 10.5178 8.99534 10.5178 9.20868V11.7685C10.5178 11.9818 10.6492 12.1731 10.8482 12.2497ZM11.5491 9.56272L12.7858 9.08667C12.9445 9.02563 13.0628 8.89021 13.1022 8.72483C13.2882 7.94295 13.5969 7.19851 14.0194 6.51222C14.1087 6.36739 14.1206 6.18795 14.0517 6.03255L13.5134 4.82045L14.8227 3.51108L16.0349 4.04946C16.1902 4.11849 16.3697 4.1065 16.5145 4.0173C17.2009 3.59468 17.9452 3.28608 18.727 3.10007C18.8923 3.06069 19.0277 2.94235 19.0888 2.78367L19.5649 1.54688H21.4166L21.8927 2.78367C21.9538 2.94235 22.0892 3.06069 22.2545 3.10007C23.0362 3.28608 23.7806 3.59468 24.467 4.0173C24.6119 4.1065 24.7913 4.11849 24.9466 4.04946L26.1588 3.51108L27.4682 4.82045L26.9299 6.03217C26.861 6.18763 26.8729 6.36707 26.9622 6.51189C27.3848 7.19819 27.6935 7.94275 27.8795 8.72489C27.9189 8.89028 28.0372 9.02569 28.1959 9.08673L29.4324 9.56265V11.4144L28.1956 11.8904C28.0369 11.9515 27.9186 12.0869 27.8793 12.2523C27.6932 13.0339 27.3846 13.7783 26.962 14.4648C26.8728 14.6096 26.8608 14.789 26.9298 14.9444L27.4682 16.1566L26.1589 17.466L24.9472 16.9278C24.7919 16.8587 24.6124 16.8707 24.4675 16.96C23.7813 17.3826 23.0367 17.6913 22.2545 17.8774C22.0891 17.9167 21.9537 18.0351 21.8927 18.1938L21.4167 19.4302H19.565L19.0889 18.1934C19.0278 18.0348 18.8924 17.9164 18.7271 17.877C17.9454 17.691 17.2009 17.3824 16.5146 16.9598C16.3697 16.8706 16.1903 16.8587 16.035 16.9276L14.8227 17.466L13.5134 16.1567L14.0516 14.9449C14.1206 14.7895 14.1086 14.6101 14.0194 14.4653C13.5968 13.7791 13.2882 13.0345 13.102 12.2522C13.0627 12.0868 12.9443 11.9514 12.7857 11.8904L11.5492 11.4145V9.56272H11.5491ZM20.4909 15.4686C23.2368 15.4686 25.4709 13.2345 25.4709 10.4886C25.4709 7.74262 23.2369 5.50862 20.4909 5.50862C17.7448 5.50862 15.5108 7.74262 15.5108 10.4886C15.5108 13.2345 17.7448 15.4686 20.4909 15.4686ZM17.9438 13.5027C18.1912 12.3074 19.2443 11.4348 20.4909 11.4348C21.7375 11.4348 22.7906 12.3074 23.038 13.5027C22.3498 14.0851 21.461 14.4373 20.4909 14.4373C19.5208 14.4373 18.6319 14.0851 17.9438 13.5027ZM20.4909 10.4035C19.9061 10.4035 19.4303 9.92771 19.4303 9.34287C19.4303 8.75802 19.9061 8.28223 20.4909 8.28223C21.0757 8.28223 21.5515 8.75802 21.5515 9.34287C21.5515 9.92771 21.0757 10.4035 20.4909 10.4035ZM20.4909 6.53987C22.6682 6.53987 24.4397 8.31123 24.4397 10.4886C24.4397 11.2631 24.2146 11.9856 23.8278 12.5959C23.4762 11.7778 22.836 11.1224 22.0391 10.7482C22.3768 10.3766 22.5828 9.88331 22.5828 9.34287C22.5828 8.18941 21.6443 7.25098 20.4909 7.25098C19.3375 7.25098 18.399 8.18941 18.399 9.34287C18.399 9.88331 18.6051 10.3766 18.9427 10.7482C18.1458 11.1224 17.5055 11.7778 17.1539 12.5959C16.7671 11.9856 16.5421 11.2631 16.5421 10.4886C16.5421 8.31123 18.3134 6.53987 20.4909 6.53987Z" fill="white"/>
</svg>
