<svg width="32" height="32" viewBox="0 0 32 32" fill="none" xmlns="http://www.w3.org/2000/svg">
<g clip-path="url(#clip0_1419_33512)">
<path d="M12.626 22.4257C12.5052 22.4257 12.3834 22.3841 12.2841 22.2995L8.86542 19.3885C8.74749 19.288 8.67969 19.1412 8.67969 18.9861C8.67969 18.8313 8.74779 18.6845 8.86542 18.584L12.2841 15.673C12.506 15.4838 12.8395 15.5106 13.0287 15.7326C13.2177 15.9549 13.1912 16.2883 12.9689 16.4773L10.0228 18.9861L12.9689 21.495C13.1912 21.6842 13.2177 22.0177 13.0287 22.2396C12.9241 22.3626 12.7755 22.4257 12.626 22.4257Z" fill="white"/>
<path d="M19.3743 22.4257C19.2248 22.4257 19.0762 22.3626 18.9718 22.2396C18.7826 22.0177 18.8094 21.6842 19.0314 21.495L21.9774 18.9861L19.0314 16.4773C18.8094 16.2883 18.7826 15.9549 18.9718 15.7326C19.1608 15.5106 19.4945 15.4838 19.7162 15.673L23.1349 18.584C23.2528 18.6845 23.3206 18.8313 23.3206 18.9861C23.3206 19.1412 23.2528 19.288 23.1349 19.3885L19.7162 22.2995C19.6169 22.3841 19.4951 22.4257 19.3743 22.4257Z" fill="white"/>
<path d="M14.7889 24.6102C14.7526 24.6102 14.7161 24.6064 14.6792 24.5987C14.3939 24.5386 14.2111 24.2582 14.2712 23.9728L16.4018 13.857C16.462 13.5716 16.742 13.3888 17.0277 13.4489C17.3131 13.5091 17.4959 13.7892 17.4357 14.0748L15.3051 24.1907C15.2526 24.4395 15.0333 24.6102 14.7889 24.6102Z" fill="white"/>
<path d="M28.4528 30.1235H3.54717C1.59139 30.1235 0 28.5324 0 26.5764V5.43779C0 3.48202 1.59139 1.89062 3.54717 1.89062H28.4528C30.4086 1.89062 32 3.48202 32 5.43779V26.5764C32 28.5324 30.4086 30.1235 28.4528 30.1235ZM3.54717 2.94723C2.17394 2.94723 1.0566 4.06456 1.0566 5.43779V26.5764C1.0566 27.9496 2.17394 29.0669 3.54717 29.0669H28.4528C29.8261 29.0669 30.9434 27.9496 30.9434 26.5764V5.43779C30.9434 4.06456 29.8261 2.94723 28.4528 2.94723H3.54717Z" fill="white"/>
<path d="M31.4717 10.3457H0.528302C0.236439 10.3457 0 10.1092 0 9.81736C0 9.5258 0.236439 9.28906 0.528302 9.28906H31.4717C31.7636 9.28906 32 9.5258 32 9.81736C32 10.1092 31.7636 10.3457 31.4717 10.3457Z" fill="white"/>
<path d="M9.02734 7.82031C8.10576 7.82031 7.35547 7.07002 7.35547 6.14844C7.35547 5.22656 8.10576 4.47656 9.02734 4.47656C9.94922 4.47656 10.6992 5.22656 10.6992 6.14844C10.6992 7.07002 9.94922 7.82031 9.02734 7.82031ZM9.02734 5.53317C8.68831 5.53317 8.41207 5.80911 8.41207 6.14844C8.41207 6.48777 8.68831 6.76371 9.02734 6.76371C9.36667 6.76371 9.64262 6.48777 9.64262 6.14844C9.64262 5.80911 9.36667 5.53317 9.02734 5.53317Z" fill="white"/>
<path d="M3.89063 7.80469C2.96875 7.80469 2.21875 7.05469 2.21875 6.13281C2.21875 5.21094 2.96875 4.46094 3.89063 4.46094C4.8125 4.46094 5.5625 5.21094 5.5625 6.13281C5.5625 7.05469 4.8125 7.80469 3.89063 7.80469ZM3.89063 5.51754C3.55159 5.51754 3.27535 5.79378 3.27535 6.13281C3.27535 6.47214 3.55159 6.74808 3.89063 6.74808C4.22995 6.74808 4.5059 6.47214 4.5059 6.13281C4.5059 5.79378 4.22995 5.51754 3.89063 5.51754Z" fill="white"/>
<path d="M14.1638 7.83564C13.2422 7.83564 12.4922 7.08564 12.4922 6.16377C12.4922 5.24219 13.2422 4.49219 14.1638 4.49219C15.0856 4.49219 15.8356 5.24219 15.8356 6.16377C15.8356 7.08564 15.0856 7.83564 14.1638 7.83564ZM14.1638 5.5485C13.8247 5.5485 13.5488 5.82444 13.5488 6.16377C13.5488 6.5031 13.8247 6.77904 14.1638 6.77904C14.5031 6.77904 14.779 6.5031 14.779 6.16377C14.779 5.82444 14.5031 5.5485 14.1638 5.5485Z" fill="white"/>
</g>
<defs>
<clipPath id="clip0_1419_33512">
<rect width="32" height="32" fill="white"/>
</clipPath>
</defs>
</svg>
