<svg width="32" height="33" viewBox="0 0 32 33" fill="none" xmlns="http://www.w3.org/2000/svg">
<path d="M19.6932 9.54356C19.6931 8.79009 19.4763 8.05358 19.0704 7.42714C18.6644 6.80071 18.0874 6.31249 17.4123 6.02422C16.7373 5.73596 15.9945 5.66059 15.2779 5.80764C14.5613 5.9547 13.9031 6.31758 13.3865 6.85039C12.8699 7.38321 12.5181 8.06203 12.3756 8.80103C12.2331 9.54002 12.3063 10.306 12.5859 11.0021C12.8656 11.6982 13.3391 12.2932 13.9466 12.7118C14.5541 13.1303 15.2683 13.3538 15.9989 13.3538C16.9784 13.3525 17.9175 12.9507 18.61 12.2364C19.3026 11.5221 19.6921 10.5537 19.6932 9.54356ZM13.1797 9.54356C13.1798 8.96856 13.3452 8.4065 13.6551 7.92846C13.9649 7.45042 14.4052 7.07785 14.9204 6.85788C15.4356 6.63791 16.0024 6.58041 16.5493 6.69265C17.0961 6.80489 17.5984 7.08183 17.9926 7.48845C18.3869 7.89507 18.6553 8.41311 18.7641 8.97707C18.8728 9.54102 18.8169 10.1256 18.6035 10.6568C18.3901 11.188 18.0288 11.642 17.5652 11.9615C17.1016 12.2809 16.5565 12.4514 15.9989 12.4514C15.2514 12.4505 14.5347 12.1439 14.0062 11.5987C13.4777 11.0536 13.1804 10.3145 13.1797 9.54356Z" fill="white"/>
<path d="M30.8317 31.2095L27.2652 21.5673C27.2335 21.4819 27.1775 21.4085 27.1045 21.3566C27.0315 21.3048 26.945 21.277 26.8564 21.277H20.1064C20.1477 21.2076 20.1887 21.1404 20.2299 21.0707C22.8272 16.6364 24.1342 12.7573 24.1154 9.54292C24.1158 7.32315 23.261 5.19416 21.7393 3.62428C20.2175 2.05441 18.1533 1.17225 16.0008 1.17188C13.8483 1.1715 11.7838 2.05294 10.2615 3.62228C8.7392 5.19162 7.88377 7.32032 7.88341 9.54008C7.86466 12.7573 9.17166 16.6369 11.7689 21.0707C11.8102 21.1411 11.8512 21.2084 11.8924 21.277H5.14241C5.05379 21.277 4.96727 21.3048 4.89428 21.3566C4.8213 21.4085 4.76529 21.4819 4.73366 21.5673L1.16766 31.2095C1.14225 31.2778 1.13335 31.3515 1.14173 31.4241C1.15012 31.4968 1.17553 31.5662 1.21577 31.6265C1.25601 31.6867 1.30988 31.736 1.37271 31.77C1.43554 31.804 1.50546 31.8216 1.57641 31.8215H30.4229C30.4939 31.8216 30.5638 31.804 30.6266 31.77C30.6894 31.736 30.7433 31.6867 30.7835 31.6265C30.8238 31.5662 30.8492 31.4968 30.8576 31.4241C30.866 31.3515 30.8571 31.2778 30.8317 31.2095ZM8.75866 9.54086C8.75882 8.56024 8.94628 7.58926 9.31032 6.68335C9.67437 5.77744 10.2079 4.95435 10.8804 4.26107C11.5529 3.56779 12.3512 3.01789 13.2298 2.64278C14.1084 2.26767 15.05 2.07469 16.0009 2.07486C16.9518 2.07503 17.8934 2.26835 18.7718 2.64377C19.6503 3.01919 20.4484 3.56937 21.1207 4.26289C21.793 4.95641 22.3262 5.77969 22.6899 6.68573C23.0537 7.59177 23.2408 8.56282 23.2407 9.54343C23.2782 15.9521 17.4682 23.8564 15.9997 25.7518C14.5312 23.8572 8.72091 15.955 8.75866 9.54086ZM15.6664 26.7573C15.7075 26.8071 15.7586 26.8471 15.8161 26.8745C15.8736 26.902 15.9363 26.9162 15.9997 26.9162C16.063 26.9162 16.1257 26.902 16.1832 26.8745C16.2408 26.8471 16.2918 26.8071 16.3329 26.7573C17.4945 25.2981 18.5714 23.7692 19.5579 22.1788H26.5547L27.1147 23.6935L13.4419 28.7082L8.56841 22.1781H12.4409C13.4276 23.7687 14.5046 25.2978 15.6664 26.7573ZM13.4267 29.6706H13.4292L21.5859 26.68L24.7497 30.9192H10.0247L13.4267 29.6706ZM5.44416 22.1781H7.46416L12.5747 29.0261L7.41391 30.9189H2.21141L5.44416 22.1781ZM25.8549 30.9192L22.4527 26.3605L27.4277 24.536L29.7884 30.9192H25.8549Z" fill="white"/>
</svg>
