<svg width="33" height="33" viewBox="0 0 33 33" fill="none" xmlns="http://www.w3.org/2000/svg">
<g clip-path="url(#clip0_1419_33542)">
<mask id="mask0_1419_33542" style="mask-type:luminance" maskUnits="userSpaceOnUse" x="0" y="0" width="33" height="33">
<path d="M0 3.8147e-06H33V33H0V3.8147e-06Z" fill="white"/>
</mask>
<g mask="url(#mask0_1419_33542)">
<path d="M12.8843 18.0469H2.03434C1.17828 18.0469 0.484375 17.3529 0.484375 16.4969V2.03027C0.484375 1.17421 1.17828 0.480304 2.03434 0.480304H16.501C17.357 0.480304 18.0509 1.17421 18.0509 2.03027V12.8802" stroke="white" stroke-width="1.3" stroke-miterlimit="10" stroke-linecap="round" stroke-linejoin="round"/>
<path d="M26.8345 14.9491H30.9678C31.8238 14.9491 32.5177 15.643 32.5177 16.499V30.9657C32.5177 31.8217 31.8238 32.5156 30.9678 32.5156H16.5011C15.6451 32.5156 14.9512 31.8217 14.9512 30.9657V16.499C14.9512 15.643 15.6451 14.9491 16.5011 14.9491H24.7679" stroke="white" stroke-width="1.3" stroke-miterlimit="10" stroke-linecap="round" stroke-linejoin="round"/>
<path d="M4.61719 5.64844H13.9172" stroke="white" stroke-width="1.3" stroke-miterlimit="10" stroke-linecap="round" stroke-linejoin="round"/>
<path d="M6.88281 7.71174C7.68371 9.4958 9.29452 12.0704 12.3673 13.9141" stroke="white" stroke-width="1.3" stroke-miterlimit="10" stroke-linecap="round" stroke-linejoin="round"/>
<path d="M12.368 5.64743C12.368 5.64743 11.3347 10.8141 6.16797 13.9141" stroke="white" stroke-width="1.3" stroke-miterlimit="10" stroke-linecap="round" stroke-linejoin="round"/>
<path d="M9.26758 5.64844V4.61513" stroke="white" stroke-width="1.3" stroke-miterlimit="10" stroke-linecap="round" stroke-linejoin="round"/>
<path d="M20.0625 28.3828L23.5546 19.2138C23.626 19.0394 23.873 19.0391 23.9446 19.2135L27.405 28.3828" stroke="white" stroke-width="1.3" stroke-miterlimit="10" stroke-linecap="round" stroke-linejoin="round"/>
<path d="M21.1523 26.1016H26.3342" stroke="white" stroke-width="1.3" stroke-miterlimit="10" stroke-linecap="round" stroke-linejoin="round"/>
<path d="M11.8514 26.8359H9.78463C7.78716 26.8359 6.16797 25.2167 6.16797 23.2193V20.1195" stroke="white" stroke-width="1.3" stroke-miterlimit="10" stroke-linecap="round" stroke-linejoin="round"/>
<path d="M10.8184 25.2828L12.885 26.8328L10.8184 28.3828" stroke="white" stroke-width="1.3" stroke-miterlimit="10" stroke-linecap="round" stroke-linejoin="round"/>
<path d="M21.1504 6.16635H23.2171C25.2146 6.16635 26.8338 7.7856 26.8338 9.783V12.8828" stroke="white" stroke-width="1.3" stroke-miterlimit="10" stroke-linecap="round" stroke-linejoin="round"/>
<path d="M22.1838 7.71875L20.1172 6.16878L22.1838 4.61875" stroke="white" stroke-width="1.3" stroke-miterlimit="10" stroke-linecap="round" stroke-linejoin="round"/>
</g>
</g>
<defs>
<clipPath id="clip0_1419_33542">
<rect width="33" height="33" fill="white" transform="matrix(1 0 0 -1 0 33)"/>
</clipPath>
</defs>
</svg>
