<svg width="32" height="32" viewBox="0 0 32 32" fill="none" xmlns="http://www.w3.org/2000/svg">
<g clip-path="url(#clip0_1419_33494)">
<path d="M27.1055 12.8284C27.1055 9.03247 24.0173 5.94434 20.2214 5.94434C19.345 5.94434 18.4746 6.11328 17.6665 6.43604V3.22021C17.6665 2.40967 17.0068 1.75 16.1963 1.75H9.86499C9.60498 1.75 9.39453 1.96069 9.39453 2.22046C9.39453 2.48047 9.60522 2.69092 9.86499 2.69092H16.1963C16.488 2.69092 16.7256 2.92847 16.7256 3.22021V7.16431C16.7253 7.16895 16.7253 7.17383 16.7256 7.17847V9.41357C16.7256 9.70557 16.488 9.94287 16.1963 9.94287H13.146C12.9341 9.94287 12.7349 10.0254 12.5847 10.1753L11.3728 11.3875L10.1609 10.1753C10.011 10.0254 9.81152 9.94287 9.59961 9.94287H6.54956C6.25757 9.94287 6.02026 9.70557 6.02026 9.41357V3.22046C6.02026 2.92847 6.25757 2.69116 6.54956 2.69116H7.97241C8.23242 2.69116 8.44287 2.48047 8.44287 2.2207C8.44287 1.96069 8.23218 1.75024 7.97241 1.75024H6.54956C5.73877 1.75024 5.0791 2.40967 5.0791 3.22046V9.41382C5.0791 10.2246 5.73877 10.8843 6.54956 10.8843H9.53857L10.8115 12.1572C10.9663 12.3118 11.1697 12.3892 11.3728 12.3892C11.5759 12.3892 11.7793 12.3118 11.9341 12.1572L13.207 10.8843H13.6162C13.4312 11.512 13.3374 12.1633 13.3374 12.8284C13.3374 13.6367 13.4741 14.4194 13.7439 15.1646H1.93384C0.867432 15.1643 0 16.0317 0 17.0979V26.1619C0 27.2283 0.867432 28.0957 1.93384 28.0957L6.39941 28.0964L8.32544 30.0225C8.50952 30.2065 8.75098 30.2983 8.99268 30.2983C9.23438 30.2983 9.47583 30.2065 9.65991 30.0225L11.5876 28.0957H16.0515C17.1179 28.0957 17.9854 27.2283 17.9854 26.1621V22.1936C17.9854 21.9336 17.7747 21.7229 17.5149 21.7229C17.2551 21.7229 17.0444 21.9336 17.0444 22.1936V26.1621C17.0444 26.7092 16.5991 27.1548 16.0518 27.1548H11.5879C11.3357 27.1548 11.0989 27.2529 10.9207 27.4312L8.99097 29.3572L7.0647 27.4309C6.88647 27.2529 6.64966 27.1548 6.39771 27.1548H1.93384C1.38647 27.1548 0.940918 26.7095 0.940918 26.1621V17.0979C0.940918 16.5508 1.38623 16.1052 1.93359 16.1052H16.0515C16.5989 16.1052 17.0442 16.5505 17.0442 17.0979V20.1965C17.0442 20.4563 17.2549 20.667 17.5146 20.667C17.7747 20.667 17.9854 20.4563 17.9854 20.1965V19.3408C18.7009 19.5874 19.4502 19.7124 20.2214 19.7124C24.0173 19.7124 27.1055 16.6243 27.1055 12.8284ZM16.0515 15.1643H14.7554C14.4392 14.4275 14.2786 13.6431 14.2786 12.8284C14.2786 12.1592 14.3884 11.5068 14.6045 10.884H16.1963C17.0068 10.884 17.6665 10.2246 17.6665 9.41357V7.4624C18.459 7.08472 19.3362 6.88525 20.2214 6.88525C23.4983 6.88525 26.1643 9.55127 26.1643 12.8284C26.1643 16.1052 23.4983 18.7712 20.2214 18.7712C19.4446 18.7712 18.6938 18.6245 17.9854 18.3357V17.0979C17.9854 16.0317 17.1179 15.1643 16.0515 15.1643Z" fill="white"/>
<path d="M30.6887 20.5234H22.5803C21.8574 20.5234 21.2695 21.1116 21.2695 21.8342V27.04C21.2695 27.7627 21.8574 28.3508 22.5803 28.3508H25.0618L26.1099 29.3989C26.2544 29.5435 26.4443 29.6157 26.6345 29.6157C26.8245 29.6157 27.0146 29.5435 27.1594 29.3989L28.2073 28.3508H30.6887C31.4114 28.3508 31.9995 27.7627 31.9995 27.04V21.8345C31.9995 21.1116 31.4114 20.5234 30.6887 20.5234ZM31.0586 27.04C31.0586 27.2439 30.8926 27.4099 30.6887 27.4099H28.125C27.9265 27.4099 27.7402 27.4871 27.6001 27.6272L26.6345 28.593L25.6689 27.6274C25.5288 27.4871 25.3423 27.4099 25.144 27.4099H22.5803C22.3765 27.4099 22.2104 27.2439 22.2104 27.04V21.8345C22.2104 21.6304 22.3762 21.4646 22.5803 21.4646H30.6887C30.8926 21.4646 31.0586 21.6304 31.0586 21.8345V27.04Z" fill="white"/>
<path d="M9.91479 21.6335L10.1035 21.4756L10.3621 21.229C10.4153 21.1763 10.4966 21.0825 10.6062 20.9478C10.7158 20.813 10.7988 20.6912 10.8552 20.5825C10.9116 20.4739 10.9648 20.3408 11.0146 20.1829C11.0645 20.0249 11.0894 19.8638 11.0894 19.6992C11.0894 19.219 10.905 18.8208 10.5366 18.5049C10.1682 18.1892 9.67456 18.0312 9.0564 18.0312C8.50366 18.0312 8.06274 18.1562 7.73389 18.4062C7.40479 18.6565 7.24023 18.9194 7.24023 19.1958C7.24023 19.3472 7.29102 19.4639 7.39258 19.5461C7.49438 19.6284 7.60742 19.6694 7.73218 19.6694C7.83032 19.6694 7.91724 19.636 7.99243 19.5688C8.06787 19.5017 8.13208 19.4299 8.18433 19.3538C8.23682 19.2776 8.33521 19.2058 8.47949 19.1384C8.62378 19.0715 8.80396 19.0378 9.02026 19.0378C9.32837 19.0378 9.57446 19.1111 9.75806 19.2573C9.94141 19.4038 10.0334 19.6101 10.0334 19.877C10.0334 20.033 9.99561 20.1843 9.91992 20.3306C9.84424 20.4768 9.76855 20.5874 9.69287 20.6624C9.61719 20.7371 9.50366 20.8394 9.35254 20.9697L9.06616 21.2036C8.67139 21.5549 8.47388 22.0688 8.47388 22.7451C8.47388 22.9534 8.50854 23.0964 8.57764 23.1746C8.64673 23.2527 8.76343 23.2915 8.92798 23.2915C9.25684 23.2915 9.42139 23.1731 9.42139 22.9363C9.42139 22.6006 9.44775 22.3442 9.50049 22.1665C9.55298 21.9888 9.69116 21.8113 9.91479 21.6335Z" fill="white"/>
<path d="M8.93799 24.0078C8.75366 24.0078 8.60571 24.0737 8.4939 24.2053C8.38184 24.3369 8.32617 24.4949 8.32617 24.679C8.32617 24.8567 8.38184 25.0129 8.4939 25.1477C8.60571 25.2827 8.75366 25.3501 8.93799 25.3501C9.12207 25.3501 9.28003 25.2827 9.41162 25.1477C9.54321 25.0129 9.60913 24.8567 9.60913 24.679C9.60913 24.4949 9.54321 24.3369 9.41162 24.2053C9.28003 24.0737 9.12207 24.0078 8.93799 24.0078Z" fill="white"/>
<path d="M19.7378 13.5574C19.7378 13.8076 19.9045 13.9324 20.2385 13.9324C20.3611 13.9324 20.4753 13.8997 20.5811 13.8337C20.6865 13.7681 20.7395 13.676 20.7395 13.5574C20.7395 13.123 20.7632 12.3994 20.811 11.386C20.8586 10.3728 20.8826 9.64893 20.8826 9.21484C20.8826 9.05029 20.8213 8.9187 20.6985 8.82007C20.5757 8.72119 20.4224 8.67188 20.2383 8.67188C20.0542 8.67188 19.9019 8.71973 19.7808 8.81494C19.6599 8.9104 19.5996 9.0437 19.5996 9.21484C19.5996 9.64893 19.6226 10.3728 19.6687 11.386C19.7146 12.3994 19.7378 13.123 19.7378 13.5574Z" fill="white"/>
<path d="M20.2483 15.9907C20.4387 15.9907 20.6021 15.9233 20.738 15.7883C20.8743 15.6536 20.9424 15.4973 20.9424 15.3196C20.9424 15.1355 20.874 14.9775 20.738 14.8459C20.6021 14.7144 20.4387 14.6484 20.2483 14.6484C20.05 14.6484 19.884 14.7144 19.7507 14.8459C19.6172 14.9775 19.5508 15.1355 19.5508 15.3196C19.5508 15.5039 19.6172 15.6619 19.7507 15.7935C19.884 15.925 20.05 15.9907 20.2483 15.9907Z" fill="white"/>
<path d="M15.0249 3.71875H7.59741C7.3374 3.71875 7.12695 3.92944 7.12695 4.18921C7.12695 4.44897 7.33765 4.65967 7.59741 4.65967H15.0249C15.2847 4.65967 15.4954 4.44897 15.4954 4.18921C15.4954 3.92944 15.2847 3.71875 15.0249 3.71875Z" fill="white"/>
<path d="M15.4954 6.08765C15.4954 5.82764 15.2847 5.61719 15.0249 5.61719H7.59741C7.3374 5.61719 7.12695 5.82764 7.12695 6.08765C7.12695 6.34741 7.33765 6.55811 7.59741 6.55811H15.0249C15.2847 6.55811 15.4954 6.34741 15.4954 6.08765Z" fill="white"/>
<path d="M7.59741 7.51562C7.3374 7.51562 7.12695 7.72632 7.12695 7.98608C7.12695 8.24609 7.33765 8.45679 7.59741 8.45679H11.3728C11.6326 8.45679 11.8433 8.24609 11.8433 7.98608C11.8433 7.72632 11.6326 7.51562 11.3728 7.51562H7.59741Z" fill="white"/>
<path d="M24.9231 24.4595C24.9231 24.7305 24.7034 24.9502 24.4321 24.9502C24.1611 24.9502 23.9414 24.7305 23.9414 24.4595C23.9414 24.1885 24.1611 23.9688 24.4321 23.9688C24.7034 23.9688 24.9231 24.1885 24.9231 24.4595Z" fill="white"/>
<path d="M27.0129 24.4595C27.0129 24.7305 26.7932 24.9502 26.522 24.9502C26.251 24.9502 26.0312 24.7305 26.0312 24.4595C26.0312 24.1885 26.251 23.9688 26.522 23.9688C26.7932 23.9688 27.0129 24.1885 27.0129 24.4595Z" fill="white"/>
<path d="M29.1497 24.4595C29.1497 24.7305 28.9299 24.9502 28.6589 24.9502C28.3877 24.9502 28.168 24.7305 28.168 24.4595C28.168 24.1885 28.3877 23.9688 28.6589 23.9688C28.9299 23.9688 29.1497 24.1885 29.1497 24.4595Z" fill="white"/>
</g>
<defs>
<clipPath id="clip0_1419_33494">
<rect width="32" height="32" fill="white"/>
</clipPath>
</defs>
</svg>
