<svg width="19" height="16" viewBox="0 0 19 16" fill="none" xmlns="http://www.w3.org/2000/svg">
<path fill-rule="evenodd" clip-rule="evenodd" d="M2.53982 7.07431C6.86696 5.1906 9.75243 3.94874 11.1961 3.34878C15.3183 1.63568 16.1749 1.33808 16.7331 1.32823C16.8559 1.32608 17.1305 1.3565 17.3083 1.5007C17.5721 1.71459 17.5736 2.17887 17.5443 2.48615C17.3209 4.8313 16.3544 10.5223 15.8626 13.1489C15.6545 14.2603 15.2448 14.633 14.8482 14.6694C13.9863 14.7486 13.3317 14.1002 12.4968 13.5534C11.1904 12.6977 10.4524 12.1651 9.18427 11.3302C7.71877 10.3652 8.66881 9.8349 9.50398 8.96816C9.72257 8.74135 13.5205 5.28972 13.594 4.97659C13.6032 4.93743 13.6117 4.79144 13.5249 4.71439C13.4381 4.63733 13.31 4.66364 13.2176 4.68461C13.0866 4.71433 10.9996 6.09262 6.9566 8.81944C6.36419 9.2259 5.82763 9.42392 5.3469 9.41355C4.81689 9.40214 3.79745 9.11415 3.03956 8.86799C2.11 8.5661 1.37119 8.40643 1.43555 7.89372C1.46906 7.62659 1.83713 7.35349 2.53982 7.07431Z" stroke="black" stroke-width="0.7" stroke-miterlimit="10" stroke-linecap="round" stroke-linejoin="round"/>
</svg>
