<svg width="16" height="16" viewBox="0 0 16 16" fill="none" xmlns="http://www.w3.org/2000/svg">
<g clip-path="url(#clip0_1419_33621)">
<path d="M4.17391 15.8372H0V5.05469H4.17391V15.8372ZM0.69561 15.1416H3.4783V5.7503H0.69561V15.1416Z" fill="black"/>
<path d="M15.9992 15.8372H11.8253V9.92421C11.8253 9.34795 11.3581 8.88073 10.7818 8.88073C10.2055 8.88073 9.73837 9.34795 9.73837 9.92421V15.8372H5.56445V5.05469H9.73837V5.75463C10.3684 5.29913 11.1261 5.05418 11.9035 5.05469C14.16 5.05469 15.9992 6.88511 15.9992 9.13727V15.8372ZM12.5209 15.1416H15.3035V9.13727C15.2988 7.26355 13.7773 5.74788 11.9035 5.7503C11.047 5.7503 10.2427 6.11116 9.64271 6.76333L9.04263 7.41984V5.7503H6.26006V15.1416H9.04263V9.92421C9.04263 8.96366 9.82129 8.18512 10.7818 8.18512C11.7423 8.18512 12.5209 8.96366 12.5209 9.92421V15.1416Z" fill="black"/>
<path d="M2.08696 4.36141C0.934316 4.36141 0 3.4271 0 2.27446C0 1.12194 0.934316 0.1875 2.08696 0.1875C3.2396 0.1875 4.17391 1.12194 4.17391 2.27446C4.17149 3.42608 3.23858 4.35912 2.08696 4.36141ZM2.08696 0.883237C1.31861 0.883237 0.69561 1.50611 0.69561 2.27446C0.69561 3.04293 1.31861 3.6658 2.08696 3.6658C2.8553 3.6658 3.4783 3.04293 3.4783 2.27446C3.4783 1.50611 2.8553 0.883237 2.08696 0.883237Z" fill="black"/>
</g>
<defs>
<clipPath id="clip0_1419_33621">
<rect width="16" height="16" fill="white"/>
</clipPath>
</defs>
</svg>
