<svg width="12" height="12" viewBox="0 0 12 12" fill="none" xmlns="http://www.w3.org/2000/svg">
<g clip-path="url(#clip0_1419_33649)">
<path d="M8.75169 0H3.24829C1.45715 0 0 1.45715 0 3.24829V8.75178C0 10.5428 1.45715 12 3.24829 12H8.75178C10.5428 12 12 10.5428 12 8.75178V3.24829C12 1.45715 10.5428 0 8.75169 0ZM11.2965 8.75178C11.2965 10.1549 10.1549 11.2965 8.75169 11.2965H3.24829C1.84506 11.2965 0.70349 10.1549 0.70349 8.75178V3.24829C0.70349 1.84506 1.84506 0.70349 3.24829 0.70349H8.75178C10.1549 0.70349 11.2965 1.84506 11.2965 3.24829V8.75178Z" fill="black"/>
<path d="M5.9999 2.71875C4.19064 2.71875 2.71875 4.19064 2.71875 5.9999C2.71875 7.80916 4.19064 9.28105 5.9999 9.28105C7.80916 9.28105 9.28105 7.80916 9.28105 5.9999C9.28105 4.19064 7.80916 2.71875 5.9999 2.71875ZM5.9999 8.57756C4.57864 8.57756 3.42224 7.42126 3.42224 5.9999C3.42224 4.57864 4.57864 3.42224 5.9999 3.42224C7.42126 3.42224 8.57756 4.57864 8.57756 5.9999C8.57756 7.42126 7.42126 8.57756 5.9999 8.57756Z" fill="black"/>
<path d="M9.36017 1.55469C8.8255 1.55469 8.39062 1.98965 8.39062 2.52423C8.39062 3.0589 8.8255 3.49386 9.36017 3.49386C9.89483 3.49386 10.3298 3.0589 10.3298 2.52423C10.3298 1.98956 9.89483 1.55469 9.36017 1.55469ZM9.36017 2.79028C9.2135 2.79028 9.09411 2.6709 9.09411 2.52423C9.09411 2.37747 9.2135 2.25818 9.36017 2.25818C9.50693 2.25818 9.62631 2.37747 9.62631 2.52423C9.62631 2.6709 9.50693 2.79028 9.36017 2.79028Z" fill="black"/>
</g>
<defs>
<clipPath id="clip0_1419_33649">
<rect width="12" height="12" fill="white"/>
</clipPath>
</defs>
</svg>
