<svg width="17" height="17" viewBox="0 0 17 17" fill="none" xmlns="http://www.w3.org/2000/svg">
<g clip-path="url(#clip0_1419_33659)">
<path d="M16.2955 10.1199L16.2955 10.1199C16.1997 10.5796 15.7391 11.1402 14.954 11.632C14.1853 12.1136 13.1677 12.488 12.0777 12.6094C10.8859 12.7421 9.73807 12.8607 8.51802 12.8085L8.518 12.8085C7.51204 12.7655 6.61103 12.6534 5.96144 12.552C5.6369 12.5013 5.37578 12.4534 5.19647 12.4183C5.10684 12.4007 5.03769 12.3864 4.99134 12.3766L4.93921 12.3653L4.92652 12.3625L4.92362 12.3618L4.92304 12.3617L4.92298 12.3617L4.92296 12.3617L4.49523 12.2642V12.7029C4.49523 12.9034 4.50844 13.097 4.53567 13.2809C4.60982 13.8046 4.78979 14.2264 5.06153 14.5588C5.33263 14.8903 5.6792 15.1135 6.0571 15.2653C6.79659 15.5622 7.70472 15.602 8.51504 15.6279L8.51506 15.6279C9.37619 15.6554 10.1856 15.5565 10.7771 15.4519C10.9931 15.4137 11.1811 15.3745 11.3332 15.3401L11.3687 16.07C11.2376 16.1215 11.045 16.1906 10.7944 16.2631C10.2691 16.4151 9.48898 16.582 8.48498 16.6339C7.37795 16.6907 5.99725 16.6083 4.38387 16.21C2.72035 15.7993 1.75185 14.7783 1.17535 13.4133C0.590065 12.0276 0.413113 10.2933 0.366267 8.4972L0.36626 8.49696C0.345342 7.71575 0.34927 6.97006 0.352843 6.29162C0.354139 6.04552 0.355388 5.80826 0.355388 5.58137C0.355388 3.82835 0.968014 2.71746 1.5626 2.0461C1.86231 1.70769 2.16116 1.47698 2.38271 1.33196C2.49337 1.25952 2.58429 1.20877 2.64569 1.1769C2.67637 1.16098 2.69962 1.14981 2.71419 1.14303L2.72937 1.13614L2.73057 1.13561L2.73087 1.13549L2.73163 1.13515L2.73359 1.13432C3.96934 0.604945 6.14728 0.367831 8.47445 0.35H8.52901C10.8562 0.367831 13.0356 0.604951 14.2712 1.13431L14.2712 1.13433L14.2731 1.13509L14.2732 1.13515L14.2732 1.13517L14.2736 1.13533L14.2739 1.13545L14.2755 1.13614L14.2906 1.14303C14.3052 1.1498 14.3285 1.16097 14.3591 1.1769C14.4205 1.20876 14.5114 1.25952 14.6221 1.33196C14.8436 1.47698 15.1425 1.70768 15.4422 2.0461C16.0367 2.71745 16.6493 3.82834 16.6493 5.58137L16.6494 5.58555V5.58557L16.6494 5.58584L16.6494 5.58711L16.6494 5.59256L16.6496 5.61483L16.65 5.70251C16.6501 5.77929 16.6498 5.89149 16.6483 6.03221C16.6452 6.31375 16.6371 6.70885 16.6167 7.16227C16.5759 8.0734 16.4865 9.20342 16.2955 10.1199Z" fill="white" stroke="black" stroke-width="0.7"/>
<path d="M8.50411 4.77701L8.8994 4.10735C9.25775 3.55369 9.79228 3.27344 10.5318 3.27344C11.1703 3.27344 11.6693 3.49655 12.0533 3.92846C12.4244 4.36053 12.6226 4.95792 12.6226 5.74785V9.57207H11.5257V5.86761C11.5257 5.42223 11.4339 5.04064 11.2081 4.76741C10.9749 4.48516 10.6346 4.3609 10.2346 4.3609C9.7918 4.3609 9.42236 4.50911 9.17272 4.83343C8.93251 5.1455 8.8326 5.58361 8.8326 6.10528V8.01978H7.74513V6.10528C7.74513 5.5836 7.64519 5.14548 7.40496 4.83342C7.1553 4.50911 6.78584 4.3609 6.34303 4.3609C5.94304 4.3609 5.60274 4.48516 5.36951 4.76741C5.14373 5.04064 5.05197 5.42223 5.05197 5.86761V9.57207H3.95508V5.74785C3.95508 4.9579 4.15324 4.36053 4.5244 3.92846C4.90836 3.49656 5.4073 3.27344 6.04589 3.27344C6.78535 3.27344 7.31989 3.55368 7.67832 4.10735L8.07352 4.77699L8.2888 5.14178L8.50411 4.77701Z" fill="white" stroke="black" stroke-width="0.5"/>
</g>
<defs>
<clipPath id="clip0_1419_33659">
<rect width="17" height="17" fill="white"/>
</clipPath>
</defs>
</svg>
