<svg width="7" height="15" viewBox="0 0 7 15" fill="none" xmlns="http://www.w3.org/2000/svg">
<path d="M1.45213 13.9995V7.76709H0.571871C0.304478 7.76709 0.0878906 7.54997 0.0878906 7.28311V5.30976C0.0878906 5.04397 0.305548 4.82631 0.571871 4.82631H1.45213V3.23961C1.45213 1.73954 2.66876 0.523438 4.16883 0.523438H6.42776C6.69515 0.523438 6.91174 0.740025 6.91174 1.00742V2.98024C6.91174 3.24763 6.69515 3.46422 6.42776 3.46422H5.0908C4.93838 3.46422 4.81271 3.58989 4.81271 3.7423V4.82738L6.39835 4.82631C6.66574 4.84503 6.88232 5.02525 6.88232 5.30976C6.83526 5.97824 6.77002 6.65367 6.71333 7.32322C6.69248 7.57296 6.48231 7.76709 6.23149 7.76709H4.81271V13.9995C4.81271 14.2653 4.59559 14.4829 4.32927 14.4829L1.9361 14.4834C1.66925 14.4834 1.45213 14.2663 1.45213 13.9995ZM2.08424 13.8524H4.18059V7.13497H6.09566L6.23737 5.45682H4.18059V3.7423C4.18059 3.23961 4.5881 2.8321 5.0908 2.8321H6.27962V1.15555H4.16883C3.01744 1.15555 2.08424 2.08875 2.08424 3.23961V5.45789H0.720006V7.13497H2.08424V13.8524Z" fill="black"/>
</svg>
