<svg width="15" height="15" viewBox="0 0 15 15" fill="none" xmlns="http://www.w3.org/2000/svg">
<g clip-path="url(#clip0_1419_33634)">
<path d="M11.5002 15.0001H5.75548V13.4043H4.84993C3.92065 13.4005 3.08955 12.8248 2.75949 11.9562L2.42441 11.0586C2.37778 10.9337 2.25845 10.851 2.12521 10.8511H1.9257C1.64356 10.8515 1.37569 10.7276 1.19348 10.5122C1.01127 10.2969 0.933194 10.0122 0.980178 9.73413C1.05603 9.27925 1.47491 8.93622 1.95761 8.93622H2.67569C3.31407 8.9354 3.89155 9.31513 4.14377 9.90161L4.5228 10.7833C4.62331 11.0179 4.8539 11.1701 5.10916 11.1703H5.75548C5.81135 10.3883 6.07058 9.77001 6.51342 9.33511L6.6012 9.25132C4.57457 8.58115 3.20234 6.93753 3.20234 5.10644C3.20643 4.35726 3.42826 3.6255 3.84059 2.99999V1.67158C3.84048 1.15253 3.96062 0.640382 4.19169 0.175567L4.28343 1.99859e-05H4.83392C5.5118 -0.00266816 6.16256 0.265912 6.64117 0.746037L6.79276 0.897625C7.99389 0.548518 9.2697 0.548518 10.471 0.897625L10.6225 0.746037C11.1001 0.266964 11.7492 -0.00161627 12.4257 1.99859e-05H12.9762L13.064 0.175567C13.295 0.640382 13.4152 1.15253 13.415 1.67158V2.99999C13.8274 3.6255 14.0492 4.35726 14.0533 5.10644C14.0533 6.93753 12.681 8.58115 10.6544 9.25132L10.7302 9.32717C11.2209 9.80869 11.4983 10.4667 11.5002 11.1543V15.0001ZM6.39374 14.3617H10.8619V11.1543C10.8597 10.6392 10.6514 10.1463 10.2834 9.7859L9.3978 8.92021L9.96429 8.7886C11.9948 8.30988 13.415 6.79786 13.415 5.10644C13.4106 4.45123 13.2075 3.81274 12.8325 3.27534L12.7768 3.19552V1.67158C12.7769 1.31721 12.7077 0.966231 12.5733 0.638395H12.4257C11.9179 0.637927 11.431 0.840356 11.0733 1.2008L10.6424 1.62775L10.4549 1.56382C9.26713 1.17965 7.98851 1.17965 6.8007 1.56382L6.61323 1.62775L6.18231 1.2008C5.82467 0.840356 5.33777 0.637927 4.82995 0.638395H4.68233C4.54792 0.966231 4.47873 1.31721 4.47885 1.67158V3.19552L4.42298 3.27534C4.04816 3.81274 3.84503 4.45123 3.84059 5.10644C3.84059 6.79786 5.26075 8.30988 7.29135 8.78463L7.85784 8.91623L6.96024 9.79397C6.62913 10.117 6.43769 10.5957 6.38977 11.2221C6.36289 11.5527 6.08718 11.8075 5.75548 11.8086H5.10916C4.59865 11.8083 4.13734 11.5039 3.93631 11.0346L3.56138 10.153C3.40967 9.8011 3.06279 9.57354 2.67967 9.57448H1.96158C1.79001 9.57448 1.63842 9.69018 1.61458 9.8378C1.5981 9.93025 1.62323 10.0253 1.68318 10.0975C1.74314 10.1697 1.83185 10.2119 1.9257 10.2129H2.12112C2.5206 10.2137 2.87789 10.4613 3.01872 10.8351L3.35392 11.7287C3.58896 12.3514 4.18432 12.7641 4.84993 12.766H5.75548C6.10798 12.766 6.39374 13.0518 6.39374 13.4043V14.3617Z" fill="black"/>
</g>
<defs>
<clipPath id="clip0_1419_33634">
<rect width="15" height="15" fill="white"/>
</clipPath>
</defs>
</svg>
