<svg width="16" height="16" viewBox="0 0 16 16" fill="none" xmlns="http://www.w3.org/2000/svg">
<g clip-path="url(#clip0_1419_33636)">
<path d="M7.99392 15.469C3.78589 15.469 0.359375 13.0242 0.359375 10.0157C0.359375 7.00741 3.78589 4.5625 7.99392 4.5625C12.2021 4.5625 15.6285 7.00741 15.6285 10.0157C15.6285 13.0242 12.2021 15.469 7.99392 15.469ZM7.99392 5.28969C4.1857 5.28969 1.08643 7.41188 1.08643 10.0157C1.08643 12.6198 4.1857 14.7419 7.99392 14.7419C11.8021 14.7419 14.9014 12.6198 14.9014 10.0157C14.9014 7.41188 11.8021 5.28969 7.99392 5.28969Z" fill="black"/>
<path d="M0.813541 8.81026C0.163305 8.2869 -0.131191 7.4383 0.0550657 6.62457C0.24119 5.81084 0.875449 5.17472 1.68851 4.9862C2.5017 4.79755 3.35124 5.08951 3.87647 5.73828L3.30851 6.19268C2.95796 5.76052 2.39147 5.56627 1.84947 5.69235C1.30748 5.81856 0.885035 6.24287 0.761219 6.7854C0.637535 7.32806 0.83431 7.89362 1.26807 8.24217L0.813541 8.81026Z" fill="black"/>
<path d="M15.1736 8.80483L14.7191 8.24126C15.1529 7.89271 15.3496 7.32715 15.226 6.78449C15.1023 6.24196 14.6797 5.81765 14.1377 5.69144C13.5957 5.56536 13.0293 5.75961 12.6788 6.19177L12.1152 5.73285C12.6389 5.07822 13.4913 4.78159 14.3082 4.96984C15.125 5.15797 15.7618 5.79755 15.9464 6.61527C16.1309 7.43299 15.8305 8.28413 15.1736 8.80483Z" fill="black"/>
<path d="M5.0851 10.3771C4.28189 10.3771 3.63086 9.72607 3.63086 8.92286C3.63086 8.11978 4.28189 7.46875 5.0851 7.46875C5.88818 7.46875 6.53921 8.11978 6.53921 8.92286C6.53921 9.72607 5.88818 10.3771 5.0851 10.3771ZM5.0851 8.19581C4.68357 8.19581 4.35791 8.52132 4.35791 8.92286C4.35791 9.32453 4.68357 9.65005 5.0851 9.65005C5.48664 9.65005 5.81216 9.32453 5.81216 8.92286C5.81216 8.52132 5.48664 8.19581 5.0851 8.19581Z" fill="black"/>
<path d="M10.9014 10.3771C10.0983 10.3771 9.44727 9.72607 9.44727 8.92286C9.44727 8.11978 10.0983 7.46875 10.9014 7.46875C11.7046 7.46875 12.3556 8.11978 12.3556 8.92286C12.3556 9.72607 11.7046 10.3771 10.9014 10.3771ZM10.9014 8.19581C10.4998 8.19581 10.1743 8.52132 10.1743 8.92286C10.1743 9.32453 10.4998 9.65005 10.9014 9.65005C11.303 9.65005 11.6286 9.32453 11.6286 8.92286C11.6286 8.52132 11.303 8.19581 10.9014 8.19581Z" fill="black"/>
<path d="M13.083 3.47085C12.2799 3.47085 11.6289 2.81982 11.6289 2.01674C11.6289 1.21353 12.2799 0.5625 13.083 0.5625C13.8862 0.5625 14.5373 1.21353 14.5373 2.01674C14.5373 2.81982 13.8862 3.47085 13.083 3.47085ZM13.083 1.28956C12.6815 1.28956 12.356 1.61507 12.356 2.01674C12.356 2.41828 12.6815 2.7438 13.083 2.7438C13.4847 2.7438 13.8102 2.41828 13.8102 2.01674C13.8102 1.61507 13.4847 1.28956 13.083 1.28956Z" fill="black"/>
<path d="M8.35805 4.92019H7.63086V3.10249C7.63113 2.42296 7.94799 1.78244 8.48799 1.36986C9.02785 0.957401 9.72921 0.820005 10.3848 0.998407L12.1072 1.46651L11.9162 2.16628L10.194 1.69817C9.75664 1.57928 9.2888 1.67101 8.9288 1.94633C8.5688 2.22166 8.35765 2.64916 8.35805 3.10249V4.92019Z" fill="black"/>
<path d="M7.99422 13.6475C6.66272 13.6475 5.42216 13.1295 4.58594 12.2296L5.11768 11.7344C5.81744 12.4887 6.86722 12.9205 7.99422 12.9205C9.12121 12.9205 10.171 12.4887 10.8709 11.7344L11.4025 12.2296C10.5664 13.1295 9.32571 13.6475 7.99422 13.6475Z" fill="black"/>
</g>
<defs>
<clipPath id="clip0_1419_33636">
<rect width="16" height="16" fill="white"/>
</clipPath>
</defs>
</svg>
