<svg width="19" height="8" viewBox="0 0 19 8" fill="none" xmlns="http://www.w3.org/2000/svg">
<g clip-path="url(#clip0_1419_33662)">
<path d="M0.236491 0.18425V7.81425H0.792304V7.99725H0.0234375V0.00225H0.792051V0.18525L0.236491 0.18425ZM2.37716 2.603V2.989H2.3883C2.48571 2.84807 2.61459 2.73107 2.76501 2.647C2.91194 2.56625 3.08041 2.52575 3.2699 2.52575C3.4523 2.52575 3.61874 2.56075 3.76948 2.63075C3.92021 2.7005 4.03472 2.8235 4.11274 3C4.19837 2.875 4.3144 2.76475 4.46158 2.66925C4.60852 2.5735 4.7823 2.52575 4.98345 2.52575C5.13596 2.52575 5.27732 2.54425 5.40753 2.58075C5.53774 2.61775 5.64921 2.6765 5.74244 2.7575C5.83516 2.83825 5.90786 2.944 5.96005 3.0745C6.01198 3.205 6.03808 3.362 6.03808 3.54625V5.4545H5.2459V3.8385C5.2459 3.74275 5.2421 3.65275 5.23476 3.568C5.22945 3.4912 5.20861 3.41622 5.17345 3.3475C5.13972 3.2848 5.08834 3.23306 5.0255 3.1985C4.9604 3.162 4.87198 3.1435 4.76026 3.1435C4.6488 3.1435 4.55861 3.16475 4.4897 3.20675C4.4208 3.24925 4.36684 3.30425 4.32782 3.37225C4.28751 3.44407 4.26105 3.52265 4.2498 3.604C4.23664 3.69073 4.23003 3.7783 4.23004 3.866V5.4545H3.43761V3.855C3.43761 3.7705 3.43584 3.68675 3.43229 3.604C3.42942 3.52559 3.41332 3.44819 3.38466 3.375C3.35732 3.30585 3.30856 3.24697 3.24533 3.20675C3.17997 3.16475 3.08421 3.1435 2.9578 3.1435C2.9076 3.14559 2.85789 3.15399 2.80985 3.1685C2.74439 3.18711 2.68357 3.21896 2.63125 3.262C2.57349 3.308 2.52434 3.37425 2.4833 3.4605C2.44252 3.547 2.422 3.66 2.422 3.79975V5.4545H1.62932V2.602L2.37716 2.603ZM6.54702 3.02225C6.62709 2.90245 6.73396 2.80238 6.85938 2.72975C6.9917 2.65402 7.13602 2.60086 7.28625 2.5725C7.44339 2.5414 7.60326 2.52574 7.76353 2.52575C7.90869 2.52575 8.05562 2.53575 8.20433 2.556C8.35329 2.57625 8.48908 2.616 8.61194 2.67475C8.73456 2.7335 8.83488 2.81525 8.91341 2.92C8.99144 3.025 9.03045 3.16375 9.03045 3.3365V4.82C9.03045 4.949 9.03805 5.072 9.05274 5.1895C9.06744 5.30725 9.09353 5.3955 9.13077 5.4545H8.32745C8.29707 5.36521 8.27834 5.27246 8.27172 5.1785C8.14505 5.30725 7.99634 5.3975 7.82534 5.44875C7.65532 5.50009 7.4785 5.52621 7.30069 5.52625C7.16288 5.52625 7.03469 5.5095 6.91562 5.47625C6.80201 5.44599 6.69571 5.39354 6.60301 5.322C6.51302 5.25132 6.44131 5.16059 6.39376 5.05725C6.34334 4.95075 6.31826 4.82375 6.31826 4.67675C6.31826 4.515 6.34714 4.38175 6.4049 4.27675C6.46241 4.172 6.53664 4.0885 6.62809 4.02575C6.71929 3.96325 6.82341 3.9165 6.9407 3.88525C7.05774 3.854 7.17605 3.82925 7.29512 3.81075C7.41418 3.7925 7.53122 3.77775 7.64649 3.76675C7.76201 3.75575 7.86436 3.73925 7.95353 3.717C8.04296 3.695 8.11338 3.66275 8.16557 3.6205C8.21776 3.57825 8.24182 3.51675 8.23828 3.4355C8.23828 3.35125 8.22434 3.284 8.19622 3.2345C8.17021 3.18672 8.13173 3.14667 8.08476 3.1185C8.03497 3.08988 7.97997 3.0712 7.92288 3.0635C7.85728 3.05409 7.79106 3.04949 7.72477 3.04975C7.56846 3.04975 7.44585 3.08275 7.35642 3.149C7.26725 3.215 7.21506 3.3255 7.20012 3.47975H6.40769C6.41884 3.296 6.4652 3.1435 6.54702 3.02225ZM8.11237 4.128C8.05937 4.14519 8.0053 4.15897 7.95049 4.16925C7.8904 4.18065 7.82989 4.18982 7.7691 4.19675C7.70577 4.20425 7.64244 4.2135 7.57936 4.22425C7.51986 4.23529 7.46113 4.25007 7.40354 4.2685C7.34962 4.28512 7.2988 4.31028 7.25306 4.343C7.21 4.37425 7.1758 4.414 7.1497 4.4615C7.12361 4.5095 7.11069 4.57 7.11069 4.6435C7.11069 4.7135 7.12361 4.77225 7.1497 4.82C7.1758 4.868 7.21101 4.9055 7.25585 4.93325C7.30044 4.96075 7.35237 4.98 7.41216 4.991C7.47144 5.002 7.533 5.0075 7.59608 5.0075C7.75238 5.0075 7.87322 4.982 7.95885 4.93025C8.04448 4.879 8.10756 4.81725 8.14885 4.7455C8.18938 4.674 8.21472 4.6015 8.22409 4.528C8.23321 4.45425 8.23802 4.3955 8.23802 4.35125V4.05875C8.20138 4.09006 8.15861 4.11363 8.11237 4.128ZM11.1169 2.603V3.127H10.5365V4.53875C10.5365 4.67125 10.5588 4.7595 10.6034 4.8035C10.648 4.84775 10.7374 4.86975 10.8712 4.86975C10.916 4.86975 10.9586 4.868 10.9996 4.86425C11.0404 4.8605 11.0797 4.855 11.1169 4.84775V5.45425C11.0429 5.46601 10.9683 5.47344 10.8935 5.4765C10.8135 5.48006 10.7336 5.48189 10.6536 5.482C10.5309 5.482 10.4144 5.4735 10.3047 5.457C10.2027 5.44311 10.1043 5.41037 10.0147 5.3605C9.93046 5.31227 9.86179 5.24155 9.81654 5.1565C9.76816 5.06825 9.74384 4.9525 9.74384 4.809V3.127H9.26402V2.603H9.74384V1.748H10.5365V2.603H11.1169ZM12.2496 2.603V3.1325H12.2607C12.3366 2.95347 12.4649 2.80081 12.6291 2.694C12.7104 2.64095 12.7987 2.59914 12.8915 2.56975C12.9853 2.54028 13.0831 2.52544 13.1816 2.52575C13.2338 2.52575 13.2913 2.535 13.3546 2.55325V3.28125C13.3103 3.27283 13.2657 3.26641 13.2208 3.262C13.1708 3.2566 13.1205 3.25384 13.0701 3.25375C12.9249 3.25375 12.8021 3.27775 12.7018 3.3255C12.6056 3.36983 12.5222 3.43711 12.4591 3.52125C12.3958 3.60794 12.3512 3.70645 12.3278 3.81075C12.301 3.92839 12.2879 4.04867 12.2888 4.16925V5.45425H11.4964V2.60425L12.2496 2.603ZM13.6895 2.16175V1.51625H14.4819V2.16175H13.6895ZM14.4819 2.603V5.453H13.6898V2.603H14.4819ZM14.8949 2.603H15.799L16.3069 3.3475L16.809 2.603H17.6853L16.7366 3.93775L17.8026 5.4545H16.8982L16.2958 4.5555L15.6929 5.4545H14.8057L15.8436 3.95425L14.8949 2.603ZM18.7709 7.813V0.183H18.215V0H18.9839V7.995H18.215V7.812L18.7709 7.813Z" fill="#040404"/>
</g>
<defs>
<clipPath id="clip0_1419_33662">
<rect width="19" height="8" fill="white"/>
</clipPath>
</defs>
</svg>
